<svg width="40" height="40" viewBox="0 0 40 40" fill="none" xmlns="http://www.w3.org/2000/svg">
<rect width="40" height="40" fill="#F3BA2E"/>
<path d="M13.7805 17.4467L19.9917 11.2325L26.2062 17.4499L29.8204 13.8339L19.9917 4L10.1664 13.8307L13.7805 17.4467ZM4 19.9995L7.61431 16.3834L11.2284 19.9993L7.6141 23.6154L4 19.9995ZM13.7805 22.5533L19.9917 28.7675L26.2061 22.5502L29.8222 26.1643L29.8204 26.1662L19.9917 36L10.1661 26.1696L10.161 26.1645L13.7805 22.5533ZM28.7557 20.0015L32.37 16.3854L35.9841 20.0013L32.3698 23.6174L28.7557 20.0015Z" fill="white"/>
<path d="M23.6576 19.9981H23.6592L19.9917 16.3288L17.2814 19.0405H17.2813L16.9699 19.3522L16.3277 19.9949L16.3225 19.9998L16.3277 20.0051L19.9917 23.6712L23.6592 20.0019L23.6609 19.9998L23.6576 19.9981Z" fill="white"/>
</svg>
