<svg width="64" height="64" viewBox="0 0 64 64" fill="none" xmlns="http://www.w3.org/2000/svg">
<g clip-path="url(#clip0_3809_4435)">
<path d="M64 0H0V64H64V0Z" fill="#F7931A"/>
<path d="M48.6143 27.6879C49.3144 23.0648 45.7455 20.5795 40.8655 18.9216L42.4485 12.659L38.5823 11.709L37.0411 17.8065C36.0261 17.5568 34.9825 17.3212 33.9455 17.0878L35.4977 10.95L31.6349 10L30.0508 16.2604C29.2097 16.0715 28.3841 15.8848 27.5827 15.6882L27.5871 15.6687L22.2568 14.356L21.2286 18.4276C21.2286 18.4276 24.0963 19.0758 24.0357 19.116C25.6011 19.5014 25.8852 20.5231 25.8367 21.3331L24.0335 28.4675C24.1414 28.4947 24.2812 28.5337 24.4353 28.5945L24.028 28.4947L21.4994 38.489C21.3078 38.958 20.8224 39.6616 19.7281 39.3945C19.7667 39.4499 16.9188 38.7029 16.9188 38.7029L15 43.0676L20.0309 44.3043C20.9666 44.5355 21.8836 44.7776 22.7852 45.0056L21.1856 51.341L25.0463 52.291L26.6315 46.0241C27.685 46.3064 28.7088 46.567 29.7106 46.8123L28.132 53.05L31.997 54L33.5966 47.6777C40.1873 48.9078 45.1444 48.4116 47.2283 42.5334C48.9093 37.7995 47.1458 35.0689 43.6781 33.2872C46.2035 32.7106 48.1057 31.0722 48.6132 27.6879H48.6143ZM39.7822 39.9015C38.5867 44.6354 30.5065 42.0774 27.8854 41.4346L30.0078 33.0429C32.6278 33.6878 41.0284 34.9646 39.7833 39.9015H39.7822ZM40.9766 27.6195C39.8868 31.9256 33.1606 29.7378 30.9777 29.2015L32.9019 21.5904C35.0849 22.1267 42.1127 23.1278 40.9766 27.6195Z" fill="white"/>
</g>
<defs>
<clipPath id="clip0_3809_4435">
<rect width="64" height="64" fill="white"/>
</clipPath>
</defs>
</svg>
