<svg width="64" height="64" viewBox="0 0 64 64" fill="none" xmlns="http://www.w3.org/2000/svg">
<g clip-path="url(#clip0_10981_6444)">
<path d="M0 32C0 49.6731 14.3269 64 32 64C49.6731 64 64 49.6731 64 32C64 14.3269 49.6731 0 32 0C14.3269 0 0 14.3269 0 32Z" fill="#F7931A"/>
<path d="M48.6143 27.6879C49.3144 23.0648 45.7455 20.5795 40.8655 18.9216L42.4485 12.659L38.5823 11.709L37.0411 17.8065C36.0261 17.5568 34.9825 17.3212 33.9455 17.0878L35.4977 10.95L31.6349 10L30.0508 16.2604C29.2097 16.0715 28.3841 15.8848 27.5827 15.6882L27.5871 15.6687L22.2568 14.356L21.2286 18.4276C21.2286 18.4276 24.0963 19.0758 24.0357 19.116C25.6011 19.5014 25.8852 20.5231 25.8367 21.3331L24.0335 28.4675C24.1414 28.4947 24.2812 28.5337 24.4353 28.5945L24.028 28.4947L21.4994 38.489C21.3078 38.958 20.8224 39.6616 19.7281 39.3945C19.7667 39.4499 16.9188 38.7029 16.9188 38.7029L15 43.0676L20.0309 44.3043C20.9666 44.5355 21.8836 44.7776 22.7852 45.0056L21.1856 51.341L25.0463 52.291L26.6315 46.0241C27.685 46.3064 28.7088 46.567 29.7106 46.8123L28.132 53.05L31.997 54L33.5966 47.6777C40.1873 48.9078 45.1444 48.4116 47.2283 42.5334C48.9093 37.7995 47.1458 35.0689 43.6781 33.2872C46.2035 32.7106 48.1057 31.0722 48.6132 27.6879H48.6143ZM39.7822 39.9015C38.5867 44.6354 30.5065 42.0774 27.8854 41.4346L30.0078 33.0429C32.6278 33.6878 41.0284 34.9646 39.7833 39.9015H39.7822ZM40.9766 27.6195C39.8868 31.9256 33.1606 29.7378 30.9777 29.2015L32.9019 21.5904C35.0849 22.1267 42.1127 23.1278 40.9766 27.6195Z" fill="white"/>
<rect x="30" y="45" width="34" height="18" rx="4" fill="#65BA77"/>
<path d="M34.483 51.2727L36.4091 54.6705L38.3523 51.2727H40.2102L37.4886 55.6364L40.233 60H38.375L36.4091 56.7386L34.4489 60H32.5852L35.3011 55.6364L32.6193 51.2727H34.483ZM45.983 60.1591C45.2027 60.1591 44.5057 60.0246 43.892 59.7557C43.2822 59.4867 42.7992 59.1136 42.4432 58.6364C42.0909 58.1553 41.9015 57.5985 41.875 56.9659H43.6591C43.6818 57.3106 43.7973 57.6098 44.0057 57.8636C44.2178 58.1136 44.4943 58.3068 44.8352 58.4432C45.1761 58.5795 45.5549 58.6477 45.9716 58.6477C46.4299 58.6477 46.8352 58.5682 47.1875 58.4091C47.5436 58.25 47.822 58.0284 48.0227 57.7443C48.2235 57.4564 48.3239 57.125 48.3239 56.75C48.3239 56.3598 48.2235 56.017 48.0227 55.7216C47.8258 55.4223 47.536 55.1875 47.1534 55.017C46.7746 54.8466 46.3163 54.7614 45.7784 54.7614H44.7955V53.3295H45.7784C46.2102 53.3295 46.589 53.2519 46.9148 53.0966C47.2443 52.9413 47.5019 52.7254 47.6875 52.4489C47.8731 52.1686 47.9659 51.8409 47.9659 51.4659C47.9659 51.1061 47.8845 50.7936 47.7216 50.5284C47.5625 50.2595 47.3352 50.0492 47.0398 49.8977C46.7481 49.7462 46.4034 49.6705 46.0057 49.6705C45.6269 49.6705 45.2727 49.7405 44.9432 49.8807C44.6174 50.017 44.3523 50.214 44.1477 50.4716C43.9432 50.7254 43.8333 51.0303 43.8182 51.3864H42.1193C42.1383 50.7576 42.3239 50.2045 42.6761 49.7273C43.0322 49.25 43.5019 48.8769 44.0852 48.608C44.6686 48.339 45.3163 48.2045 46.0284 48.2045C46.7746 48.2045 47.4186 48.3504 47.9602 48.642C48.5057 48.9299 48.9261 49.3144 49.2216 49.7955C49.5208 50.2765 49.6686 50.803 49.6648 51.375C49.6686 52.0265 49.4867 52.5795 49.1193 53.0341C48.7557 53.4886 48.2708 53.7936 47.6648 53.9489V54.0398C48.4375 54.1572 49.036 54.464 49.4602 54.9602C49.8883 55.4564 50.1004 56.072 50.0966 56.8068C50.1004 57.447 49.9223 58.0208 49.5625 58.5284C49.2064 59.036 48.7197 59.4356 48.1023 59.7273C47.4848 60.0152 46.7784 60.1591 45.983 60.1591ZM52.4034 60V48.3636H54.1591V58.4886H59.4318V60H52.4034Z" fill="#E8FCF1"/>
</g>
<defs>
<clipPath id="clip0_10981_6444">
<rect width="64" height="64" fill="white"/>
</clipPath>
</defs>
</svg>
