<svg width="64" height="64" viewBox="0 0 64 64" fill="none" xmlns="http://www.w3.org/2000/svg">
<g clip-path="url(#clip0_10998_6525)">
<path d="M0 32C0 49.6731 14.3269 64 32 64C49.6731 64 64 49.6731 64 32C64 14.3269 49.6731 0 32 0C14.3269 0 0 14.3269 0 32Z" fill="#419E6A"/>
<path d="M34.483 29.2727L36.4091 32.6705L38.3523 29.2727H40.2102L37.4886 33.6364L40.233 38H38.375L36.4091 34.7386L34.4489 38H32.5852L35.3011 33.6364L32.6193 29.2727H34.483ZM45.7727 38.1591C45.0606 38.1591 44.4205 38.0227 43.8523 37.75C43.2879 37.4735 42.8371 37.0947 42.5 36.6136C42.1629 36.1326 41.983 35.5833 41.9602 34.9659H43.6648C43.7064 35.4659 43.928 35.8769 44.3295 36.1989C44.7311 36.5208 45.2121 36.6818 45.7727 36.6818C46.2197 36.6818 46.6155 36.5795 46.9602 36.375C47.3087 36.1667 47.5814 35.8807 47.7784 35.517C47.9792 35.1534 48.0795 34.7386 48.0795 34.2727C48.0795 33.7992 47.9773 33.3769 47.7727 33.0057C47.5682 32.6345 47.286 32.3428 46.9261 32.1307C46.5701 31.9186 46.161 31.8106 45.6989 31.8068C45.3466 31.8068 44.9924 31.8674 44.6364 31.9886C44.2803 32.1098 43.9924 32.2689 43.7727 32.4659L42.1648 32.2273L42.8182 26.3636H49.2159V27.8693H44.2784L43.9091 31.125H43.9773C44.2045 30.9053 44.5057 30.7216 44.8807 30.5739C45.2595 30.4261 45.6648 30.3523 46.0966 30.3523C46.8049 30.3523 47.4356 30.5208 47.9886 30.858C48.5455 31.1951 48.983 31.6553 49.3011 32.2386C49.6231 32.8182 49.7822 33.4848 49.7784 34.2386C49.7822 34.9924 49.6117 35.6648 49.267 36.2557C48.9261 36.8466 48.4527 37.3125 47.8466 37.6534C47.2443 37.9905 46.553 38.1591 45.7727 38.1591ZM52.0128 38V26.3636H53.7685V36.4886H59.0412V38H52.0128Z" fill="#FFEBEB"/>
<path d="M31.9218 28.0799C32.5451 23.8771 29.3682 21.6178 25.0242 20.1105L26.4333 14.4173L22.9918 13.5536L21.6199 19.0969C20.7165 18.8698 19.7875 18.6556 18.8644 18.4434L20.2461 12.8637L16.8076 12L15.3975 17.6913C14.6488 17.5196 13.9139 17.3498 13.2005 17.1711L13.2044 17.1534L8.45963 15.96L7.54438 19.6614C7.54438 19.6614 10.0971 20.2507 10.0432 20.2872C11.4366 20.6376 11.6894 21.5664 11.6463 22.3028L10.0412 28.7886C10.1372 28.8133 10.2617 28.8489 10.3989 28.9041L10.0363 28.8133L7.78544 37.8991C7.61494 38.3255 7.18279 38.9651 6.20875 38.7223C6.24305 38.7726 3.708 38.0935 3.708 38.0935L2 42.0614L6.47823 43.1857C7.31116 43.3959 8.12743 43.616 8.92999 43.8233L7.50616 49.5827L10.9427 50.4464L12.3538 44.7492C13.2916 45.0058 14.2029 45.2427 15.0947 45.4658L13.6895 51.1363L17.1299 52L18.5538 46.2524C24.4205 47.3708 28.8331 46.9197 30.6881 41.5758C32.1844 37.2723 30.6146 34.7899 27.5279 33.1701C29.7758 32.646 31.4691 31.1566 31.9208 28.0799H31.9218ZM24.0599 39.1832C22.9957 43.4867 15.8031 41.1613 13.47 40.5769L15.3592 32.9481C17.6914 33.5344 25.1692 34.6951 24.0609 39.1832H24.0599ZM25.1231 28.0178C24.153 31.9324 18.1657 29.9435 16.2225 29.4559L17.9354 22.5367C19.8786 23.0243 26.1344 23.9344 25.1231 28.0178Z" fill="white"/>
</g>
<defs>
<clipPath id="clip0_10998_6525">
<rect width="64" height="64" fill="white"/>
</clipPath>
</defs>
</svg>
