<svg width="64" height="64" viewBox="0 0 64 64" fill="none" xmlns="http://www.w3.org/2000/svg">
<g clip-path="url(#clip0_10981_6441)">
<path d="M0 32C0 49.6731 14.3269 64 32 64C49.6731 64 64 49.6731 64 32C64 14.3269 49.6731 0 32 0C14.3269 0 0 14.3269 0 32Z" fill="#F7931A"/>
<path d="M48.6143 27.6879C49.3144 23.0648 45.7455 20.5795 40.8655 18.9216L42.4485 12.659L38.5823 11.709L37.0411 17.8065C36.0261 17.5568 34.9825 17.3212 33.9455 17.0878L35.4977 10.95L31.6349 10L30.0508 16.2604C29.2097 16.0715 28.3841 15.8848 27.5827 15.6882L27.5871 15.6687L22.2568 14.356L21.2286 18.4276C21.2286 18.4276 24.0963 19.0758 24.0357 19.116C25.6011 19.5014 25.8852 20.5231 25.8367 21.3331L24.0335 28.4675C24.1414 28.4947 24.2812 28.5337 24.4353 28.5945L24.028 28.4947L21.4994 38.489C21.3078 38.958 20.8224 39.6616 19.7281 39.3945C19.7667 39.4499 16.9188 38.7029 16.9188 38.7029L15 43.0676L20.0309 44.3043C20.9666 44.5355 21.8836 44.7776 22.7852 45.0056L21.1856 51.341L25.0463 52.291L26.6315 46.0241C27.685 46.3064 28.7088 46.567 29.7106 46.8123L28.132 53.05L31.997 54L33.5966 47.6777C40.1873 48.9078 45.1444 48.4116 47.2283 42.5334C48.9093 37.7995 47.1458 35.0689 43.6781 33.2872C46.2035 32.7106 48.1057 31.0722 48.6132 27.6879H48.6143ZM39.7822 39.9015C38.5867 44.6354 30.5065 42.0774 27.8854 41.4346L30.0078 33.0429C32.6278 33.6878 41.0284 34.9646 39.7833 39.9015H39.7822ZM40.9766 27.6195C39.8868 31.9256 33.1606 29.7378 30.9777 29.2015L32.9019 21.5904C35.0849 22.1267 42.1127 23.1278 40.9766 27.6195Z" fill="white"/>
<rect x="30" y="45" width="34" height="18" rx="4" fill="#E35561"/>
<path d="M34.483 51.2727L36.4091 54.6705L38.3523 51.2727H40.2102L37.4886 55.6364L40.233 60H38.375L36.4091 56.7386L34.4489 60H32.5852L35.3011 55.6364L32.6193 51.2727H34.483ZM45.7727 60.1591C45.0606 60.1591 44.4205 60.0227 43.8523 59.75C43.2879 59.4735 42.8371 59.0947 42.5 58.6136C42.1629 58.1326 41.983 57.5833 41.9602 56.9659H43.6648C43.7064 57.4659 43.928 57.8769 44.3295 58.1989C44.7311 58.5208 45.2121 58.6818 45.7727 58.6818C46.2197 58.6818 46.6155 58.5795 46.9602 58.375C47.3087 58.1667 47.5814 57.8807 47.7784 57.517C47.9792 57.1534 48.0795 56.7386 48.0795 56.2727C48.0795 55.7992 47.9773 55.3769 47.7727 55.0057C47.5682 54.6345 47.286 54.3428 46.9261 54.1307C46.5701 53.9186 46.161 53.8106 45.6989 53.8068C45.3466 53.8068 44.9924 53.8674 44.6364 53.9886C44.2803 54.1098 43.9924 54.2689 43.7727 54.4659L42.1648 54.2273L42.8182 48.3636H49.2159V49.8693H44.2784L43.9091 53.125H43.9773C44.2045 52.9053 44.5057 52.7216 44.8807 52.5739C45.2595 52.4261 45.6648 52.3523 46.0966 52.3523C46.8049 52.3523 47.4356 52.5208 47.9886 52.858C48.5455 53.1951 48.983 53.6553 49.3011 54.2386C49.6231 54.8182 49.7822 55.4848 49.7784 56.2386C49.7822 56.9924 49.6117 57.6648 49.267 58.2557C48.9261 58.8466 48.4527 59.3125 47.8466 59.6534C47.2443 59.9905 46.553 60.1591 45.7727 60.1591ZM58.3594 51.4205C58.2988 50.8826 58.0488 50.4659 57.6094 50.1705C57.17 49.8712 56.617 49.7216 55.9503 49.7216C55.473 49.7216 55.0601 49.7973 54.7116 49.9489C54.3632 50.0966 54.0923 50.3011 53.8991 50.5625C53.7098 50.8201 53.6151 51.1136 53.6151 51.4432C53.6151 51.7197 53.6795 51.9583 53.8082 52.1591C53.9408 52.3598 54.1132 52.5284 54.3253 52.6648C54.5412 52.7973 54.7723 52.9091 55.0185 53C55.2647 53.0871 55.5014 53.1591 55.7287 53.2159L56.8651 53.5114C57.2363 53.6023 57.617 53.7254 58.0071 53.8807C58.3973 54.036 58.759 54.2405 59.0923 54.4943C59.4257 54.7481 59.6946 55.0625 59.8991 55.4375C60.1075 55.8125 60.2116 56.2614 60.2116 56.7841C60.2116 57.4432 60.0412 58.0284 59.7003 58.5398C59.3632 59.0511 58.8726 59.4545 58.2287 59.75C57.5885 60.0455 56.8139 60.1932 55.9048 60.1932C55.0336 60.1932 54.2798 60.0549 53.6435 59.7784C53.0071 59.5019 52.509 59.1098 52.1491 58.6023C51.7893 58.0909 51.5904 57.4848 51.5526 56.7841H53.3139C53.348 57.2045 53.4844 57.5549 53.723 57.8352C53.9654 58.1117 54.2741 58.3182 54.6491 58.4545C55.0279 58.5871 55.4427 58.6534 55.8935 58.6534C56.3897 58.6534 56.831 58.5758 57.2173 58.4205C57.6075 58.2614 57.9143 58.0417 58.1378 57.7614C58.3613 57.4773 58.473 57.1458 58.473 56.767C58.473 56.4223 58.3745 56.1402 58.1776 55.9205C57.9844 55.7008 57.7211 55.5189 57.3878 55.375C57.0582 55.2311 56.6851 55.1042 56.2685 54.9943L54.8935 54.6193C53.9616 54.3655 53.223 53.9924 52.6776 53.5C52.1359 53.0076 51.8651 52.3561 51.8651 51.5455C51.8651 50.875 52.0469 50.2898 52.4105 49.7898C52.7741 49.2898 53.2666 48.9015 53.8878 48.625C54.509 48.3447 55.2098 48.2045 55.9901 48.2045C56.7779 48.2045 57.473 48.3428 58.0753 48.6193C58.6813 48.8958 59.1586 49.2765 59.5071 49.7614C59.8556 50.2424 60.0374 50.7955 60.0526 51.4205H58.3594Z" fill="#FFEBEB"/>
</g>
<defs>
<clipPath id="clip0_10981_6441">
<rect width="64" height="64" fill="white"/>
</clipPath>
</defs>
</svg>
