<svg width="64" height="64" viewBox="0 0 64 64" fill="none" xmlns="http://www.w3.org/2000/svg">
<g clip-path="url(#clip0_10998_6410)">
<path d="M0 32C0 49.6731 14.3269 64 32 64C49.6731 64 64 49.6731 64 32C64 14.3269 49.6731 0 32 0C14.3269 0 0 14.3269 0 32Z" fill="#E35561"/>
<path d="M17.7495 10V26.2651L31.4969 32.408L17.7495 10Z" fill="white" fill-opacity="0.602"/>
<path d="M17.7492 10L4 32.408L17.7492 26.2651V10Z" fill="white"/>
<path d="M17.7495 42.9482V54L31.5061 34.9678L17.7495 42.9482Z" fill="white" fill-opacity="0.602"/>
<path d="M17.7492 54V42.9463L4 34.9678L17.7492 54Z" fill="white"/>
<path d="M17.7495 40.3902L31.4969 32.408L17.7495 26.2687V40.3902Z" fill="white" fill-opacity="0.2"/>
<path d="M4 32.408L17.7492 40.3902V26.2687L4 32.408Z" fill="white" fill-opacity="0.602"/>
<path d="M34.483 29.2727L36.4091 32.6705L38.3523 29.2727H40.2102L37.4886 33.6364L40.233 38H38.375L36.4091 34.7386L34.4489 38H32.5852L35.3011 33.6364L32.6193 29.2727H34.483ZM45.983 38.1591C45.2027 38.1591 44.5057 38.0246 43.892 37.7557C43.2822 37.4867 42.7992 37.1136 42.4432 36.6364C42.0909 36.1553 41.9015 35.5985 41.875 34.9659H43.6591C43.6818 35.3106 43.7973 35.6098 44.0057 35.8636C44.2178 36.1136 44.4943 36.3068 44.8352 36.4432C45.1761 36.5795 45.5549 36.6477 45.9716 36.6477C46.4299 36.6477 46.8352 36.5682 47.1875 36.4091C47.5436 36.25 47.822 36.0284 48.0227 35.7443C48.2235 35.4564 48.3239 35.125 48.3239 34.75C48.3239 34.3598 48.2235 34.017 48.0227 33.7216C47.8258 33.4223 47.536 33.1875 47.1534 33.017C46.7746 32.8466 46.3163 32.7614 45.7784 32.7614H44.7955V31.3295H45.7784C46.2102 31.3295 46.589 31.2519 46.9148 31.0966C47.2443 30.9413 47.5019 30.7254 47.6875 30.4489C47.8731 30.1686 47.9659 29.8409 47.9659 29.4659C47.9659 29.1061 47.8845 28.7936 47.7216 28.5284C47.5625 28.2595 47.3352 28.0492 47.0398 27.8977C46.7481 27.7462 46.4034 27.6705 46.0057 27.6705C45.6269 27.6705 45.2727 27.7405 44.9432 27.8807C44.6174 28.017 44.3523 28.214 44.1477 28.4716C43.9432 28.7254 43.8333 29.0303 43.8182 29.3864H42.1193C42.1383 28.7576 42.3239 28.2045 42.6761 27.7273C43.0322 27.25 43.5019 26.8769 44.0852 26.608C44.6686 26.339 45.3163 26.2045 46.0284 26.2045C46.7746 26.2045 47.4186 26.3504 47.9602 26.642C48.5057 26.9299 48.9261 27.3144 49.2216 27.7955C49.5208 28.2765 49.6686 28.803 49.6648 29.375C49.6686 30.0265 49.4867 30.5795 49.1193 31.0341C48.7557 31.4886 48.2708 31.7936 47.6648 31.9489V32.0398C48.4375 32.1572 49.036 32.464 49.4602 32.9602C49.8883 33.4564 50.1004 34.072 50.0966 34.8068C50.1004 35.447 49.9223 36.0208 49.5625 36.5284C49.2064 37.036 48.7197 37.4356 48.1023 37.7273C47.4848 38.0152 46.7784 38.1591 45.983 38.1591ZM58.75 29.4205C58.6894 28.8826 58.4394 28.4659 58 28.1705C57.5606 27.8712 57.0076 27.7216 56.3409 27.7216C55.8636 27.7216 55.4508 27.7973 55.1023 27.9489C54.7538 28.0966 54.483 28.3011 54.2898 28.5625C54.1004 28.8201 54.0057 29.1136 54.0057 29.4432C54.0057 29.7197 54.0701 29.9583 54.1989 30.1591C54.3314 30.3598 54.5038 30.5284 54.7159 30.6648C54.9318 30.7973 55.1629 30.9091 55.4091 31C55.6553 31.0871 55.892 31.1591 56.1193 31.2159L57.2557 31.5114C57.6269 31.6023 58.0076 31.7254 58.3977 31.8807C58.7879 32.036 59.1496 32.2405 59.483 32.4943C59.8163 32.7481 60.0852 33.0625 60.2898 33.4375C60.4981 33.8125 60.6023 34.2614 60.6023 34.7841C60.6023 35.4432 60.4318 36.0284 60.0909 36.5398C59.7538 37.0511 59.2633 37.4545 58.6193 37.75C57.9792 38.0455 57.2045 38.1932 56.2955 38.1932C55.4242 38.1932 54.6705 38.0549 54.0341 37.7784C53.3977 37.5019 52.8996 37.1098 52.5398 36.6023C52.1799 36.0909 51.9811 35.4848 51.9432 34.7841H53.7045C53.7386 35.2045 53.875 35.5549 54.1136 35.8352C54.3561 36.1117 54.6648 36.3182 55.0398 36.4545C55.4186 36.5871 55.8333 36.6534 56.2841 36.6534C56.7803 36.6534 57.2216 36.5758 57.608 36.4205C57.9981 36.2614 58.3049 36.0417 58.5284 35.7614C58.7519 35.4773 58.8636 35.1458 58.8636 34.767C58.8636 34.4223 58.7652 34.1402 58.5682 33.9205C58.375 33.7008 58.1117 33.5189 57.7784 33.375C57.4489 33.2311 57.0758 33.1042 56.6591 32.9943L55.2841 32.6193C54.3523 32.3655 53.6136 31.9924 53.0682 31.5C52.5265 31.0076 52.2557 30.3561 52.2557 29.5455C52.2557 28.875 52.4375 28.2898 52.8011 27.7898C53.1648 27.2898 53.6572 26.9015 54.2784 26.625C54.8996 26.3447 55.6004 26.2045 56.3807 26.2045C57.1686 26.2045 57.8636 26.3428 58.4659 26.6193C59.072 26.8958 59.5492 27.2765 59.8977 27.7614C60.2462 28.2424 60.428 28.7955 60.4432 29.4205H58.75Z" fill="#FFEBEB"/>
</g>
<defs>
<clipPath id="clip0_10998_6410">
<rect width="64" height="64" fill="white"/>
</clipPath>
</defs>
</svg>
