<svg width="64" height="64" viewBox="0 0 64 64" fill="none" xmlns="http://www.w3.org/2000/svg">
<g clip-path="url(#clip0_10998_6443)">
<path d="M0 32C0 49.6731 14.3269 64 32 64C49.6731 64 64 49.6731 64 32C64 14.3269 49.6731 0 32 0C14.3269 0 0 14.3269 0 32Z" fill="#419E6A"/>
<path d="M17.7495 10V26.2651L31.4969 32.408L17.7495 10Z" fill="white" fill-opacity="0.602"/>
<path d="M17.7492 10L4 32.408L17.7492 26.2651V10Z" fill="white"/>
<path d="M17.7495 42.9482V54L31.5061 34.9678L17.7495 42.9482Z" fill="white" fill-opacity="0.602"/>
<path d="M17.7492 54V42.9463L4 34.9678L17.7492 54Z" fill="white"/>
<path d="M17.7495 40.3902L31.4969 32.408L17.7495 26.2687V40.3902Z" fill="white" fill-opacity="0.2"/>
<path d="M4 32.408L17.7492 40.3902V26.2687L4 32.408Z" fill="white" fill-opacity="0.602"/>
<path d="M34.483 29.2727L36.4091 32.6705L38.3523 29.2727H40.2102L37.4886 33.6364L40.233 38H38.375L36.4091 34.7386L34.4489 38H32.5852L35.3011 33.6364L32.6193 29.2727H34.483ZM45.7727 38.1591C45.0606 38.1591 44.4205 38.0227 43.8523 37.75C43.2879 37.4735 42.8371 37.0947 42.5 36.6136C42.1629 36.1326 41.983 35.5833 41.9602 34.9659H43.6648C43.7064 35.4659 43.928 35.8769 44.3295 36.1989C44.7311 36.5208 45.2121 36.6818 45.7727 36.6818C46.2197 36.6818 46.6155 36.5795 46.9602 36.375C47.3087 36.1667 47.5814 35.8807 47.7784 35.517C47.9792 35.1534 48.0795 34.7386 48.0795 34.2727C48.0795 33.7992 47.9773 33.3769 47.7727 33.0057C47.5682 32.6345 47.286 32.3428 46.9261 32.1307C46.5701 31.9186 46.161 31.8106 45.6989 31.8068C45.3466 31.8068 44.9924 31.8674 44.6364 31.9886C44.2803 32.1098 43.9924 32.2689 43.7727 32.4659L42.1648 32.2273L42.8182 26.3636H49.2159V27.8693H44.2784L43.9091 31.125H43.9773C44.2045 30.9053 44.5057 30.7216 44.8807 30.5739C45.2595 30.4261 45.6648 30.3523 46.0966 30.3523C46.8049 30.3523 47.4356 30.5208 47.9886 30.858C48.5455 31.1951 48.983 31.6553 49.3011 32.2386C49.6231 32.8182 49.7822 33.4848 49.7784 34.2386C49.7822 34.9924 49.6117 35.6648 49.267 36.2557C48.9261 36.8466 48.4527 37.3125 47.8466 37.6534C47.2443 37.9905 46.553 38.1591 45.7727 38.1591ZM52.0128 38V26.3636H53.7685V36.4886H59.0412V38H52.0128Z" fill="#FFEBEB"/>
</g>
<defs>
<clipPath id="clip0_10998_6443">
<rect width="64" height="64" fill="white"/>
</clipPath>
</defs>
</svg>
