<svg width="64" height="64" viewBox="0 0 64 64" fill="none" xmlns="http://www.w3.org/2000/svg">
<g clip-path="url(#clip0_10998_6432)">
<path d="M0 32C0 49.6731 14.3269 64 32 64C49.6731 64 64 49.6731 64 32C64 14.3269 49.6731 0 32 0C14.3269 0 0 14.3269 0 32Z" fill="#B01212"/>
<path d="M34.483 29.2727L36.4091 32.6705L38.3523 29.2727H40.2102L37.4886 33.6364L40.233 38H38.375L36.4091 34.7386L34.4489 38H32.5852L35.3011 33.6364L32.6193 29.2727H34.483ZM45.7727 38.1591C45.0606 38.1591 44.4205 38.0227 43.8523 37.75C43.2879 37.4735 42.8371 37.0947 42.5 36.6136C42.1629 36.1326 41.983 35.5833 41.9602 34.9659H43.6648C43.7064 35.4659 43.928 35.8769 44.3295 36.1989C44.7311 36.5208 45.2121 36.6818 45.7727 36.6818C46.2197 36.6818 46.6155 36.5795 46.9602 36.375C47.3087 36.1667 47.5814 35.8807 47.7784 35.517C47.9792 35.1534 48.0795 34.7386 48.0795 34.2727C48.0795 33.7992 47.9773 33.3769 47.7727 33.0057C47.5682 32.6345 47.286 32.3428 46.9261 32.1307C46.5701 31.9186 46.161 31.8106 45.6989 31.8068C45.3466 31.8068 44.9924 31.8674 44.6364 31.9886C44.2803 32.1098 43.9924 32.2689 43.7727 32.4659L42.1648 32.2273L42.8182 26.3636H49.2159V27.8693H44.2784L43.9091 31.125H43.9773C44.2045 30.9053 44.5057 30.7216 44.8807 30.5739C45.2595 30.4261 45.6648 30.3523 46.0966 30.3523C46.8049 30.3523 47.4356 30.5208 47.9886 30.858C48.5455 31.1951 48.983 31.6553 49.3011 32.2386C49.6231 32.8182 49.7822 33.4848 49.7784 34.2386C49.7822 34.9924 49.6117 35.6648 49.267 36.2557C48.9261 36.8466 48.4527 37.3125 47.8466 37.6534C47.2443 37.9905 46.553 38.1591 45.7727 38.1591ZM58.3594 29.4205C58.2988 28.8826 58.0488 28.4659 57.6094 28.1705C57.17 27.8712 56.617 27.7216 55.9503 27.7216C55.473 27.7216 55.0601 27.7973 54.7116 27.9489C54.3632 28.0966 54.0923 28.3011 53.8991 28.5625C53.7098 28.8201 53.6151 29.1136 53.6151 29.4432C53.6151 29.7197 53.6795 29.9583 53.8082 30.1591C53.9408 30.3598 54.1132 30.5284 54.3253 30.6648C54.5412 30.7973 54.7723 30.9091 55.0185 31C55.2647 31.0871 55.5014 31.1591 55.7287 31.2159L56.8651 31.5114C57.2363 31.6023 57.617 31.7254 58.0071 31.8807C58.3973 32.036 58.759 32.2405 59.0923 32.4943C59.4257 32.7481 59.6946 33.0625 59.8991 33.4375C60.1075 33.8125 60.2116 34.2614 60.2116 34.7841C60.2116 35.4432 60.0412 36.0284 59.7003 36.5398C59.3632 37.0511 58.8726 37.4545 58.2287 37.75C57.5885 38.0455 56.8139 38.1932 55.9048 38.1932C55.0336 38.1932 54.2798 38.0549 53.6435 37.7784C53.0071 37.5019 52.509 37.1098 52.1491 36.6023C51.7893 36.0909 51.5904 35.4848 51.5526 34.7841H53.3139C53.348 35.2045 53.4844 35.5549 53.723 35.8352C53.9654 36.1117 54.2741 36.3182 54.6491 36.4545C55.0279 36.5871 55.4427 36.6534 55.8935 36.6534C56.3897 36.6534 56.831 36.5758 57.2173 36.4205C57.6075 36.2614 57.9143 36.0417 58.1378 35.7614C58.3613 35.4773 58.473 35.1458 58.473 34.767C58.473 34.4223 58.3745 34.1402 58.1776 33.9205C57.9844 33.7008 57.7211 33.5189 57.3878 33.375C57.0582 33.2311 56.6851 33.1042 56.2685 32.9943L54.8935 32.6193C53.9616 32.3655 53.223 31.9924 52.6776 31.5C52.1359 31.0076 51.8651 30.3561 51.8651 29.5455C51.8651 28.875 52.0469 28.2898 52.4105 27.7898C52.7741 27.2898 53.2666 26.9015 53.8878 26.625C54.509 26.3447 55.2098 26.2045 55.9901 26.2045C56.7779 26.2045 57.473 26.3428 58.0753 26.6193C58.6813 26.8958 59.1586 27.2765 59.5071 27.7614C59.8556 28.2424 60.0374 28.7955 60.0526 29.4205H58.3594Z" fill="#FFEBEB"/>
<path d="M17.7495 10V26.2651L31.4969 32.408L17.7495 10Z" fill="white" fill-opacity="0.602"/>
<path d="M17.7492 10L4 32.408L17.7492 26.2651V10Z" fill="white"/>
<path d="M17.7495 42.9482V54L31.5061 34.9678L17.7495 42.9482Z" fill="white" fill-opacity="0.602"/>
<path d="M17.7492 54V42.9463L4 34.9678L17.7492 54Z" fill="white"/>
<path d="M17.7495 40.3902L31.4969 32.408L17.7495 26.2687V40.3902Z" fill="white" fill-opacity="0.2"/>
<path d="M4 32.408L17.7492 40.3902V26.2687L4 32.408Z" fill="white" fill-opacity="0.602"/>
</g>
<defs>
<clipPath id="clip0_10998_6432">
<rect width="64" height="64" fill="white"/>
</clipPath>
</defs>
</svg>
