<svg width="64" height="64" viewBox="0 0 64 64" fill="none" xmlns="http://www.w3.org/2000/svg">
<g clip-path="url(#clip0_10981_6430)">
<path d="M0 32C0 49.6731 14.3269 64 32 64C49.6731 64 64 49.6731 64 32C64 14.3269 49.6731 0 32 0C14.3269 0 0 14.3269 0 32Z" fill="#627EEA"/>
<path d="M31.7495 10V26.2651L45.4969 32.408L31.7495 10Z" fill="white" fill-opacity="0.602"/>
<path d="M31.7492 10L18 32.408L31.7492 26.2651V10Z" fill="white"/>
<path d="M31.7495 42.9482V54L45.5061 34.9678L31.7495 42.9482Z" fill="white" fill-opacity="0.602"/>
<path d="M31.7492 54V42.9463L18 34.9678L31.7492 54Z" fill="white"/>
<path d="M31.7495 40.3902L45.4969 32.408L31.7495 26.2687V40.3902Z" fill="white" fill-opacity="0.2"/>
<path d="M18 32.408L31.7492 40.3902V26.2687L18 32.408Z" fill="white" fill-opacity="0.602"/>
<rect x="30" y="45" width="34" height="18" rx="4" fill="#65BA77"/>
<path d="M34.483 51.2727L36.4091 54.6705L38.3523 51.2727H40.2102L37.4886 55.6364L40.233 60H38.375L36.4091 56.7386L34.4489 60H32.5852L35.3011 55.6364L32.6193 51.2727H34.483ZM45.7727 60.1591C45.0606 60.1591 44.4205 60.0227 43.8523 59.75C43.2879 59.4735 42.8371 59.0947 42.5 58.6136C42.1629 58.1326 41.983 57.5833 41.9602 56.9659H43.6648C43.7064 57.4659 43.928 57.8769 44.3295 58.1989C44.7311 58.5208 45.2121 58.6818 45.7727 58.6818C46.2197 58.6818 46.6155 58.5795 46.9602 58.375C47.3087 58.1667 47.5814 57.8807 47.7784 57.517C47.9792 57.1534 48.0795 56.7386 48.0795 56.2727C48.0795 55.7992 47.9773 55.3769 47.7727 55.0057C47.5682 54.6345 47.286 54.3428 46.9261 54.1307C46.5701 53.9186 46.161 53.8106 45.6989 53.8068C45.3466 53.8068 44.9924 53.8674 44.6364 53.9886C44.2803 54.1098 43.9924 54.2689 43.7727 54.4659L42.1648 54.2273L42.8182 48.3636H49.2159V49.8693H44.2784L43.9091 53.125H43.9773C44.2045 52.9053 44.5057 52.7216 44.8807 52.5739C45.2595 52.4261 45.6648 52.3523 46.0966 52.3523C46.8049 52.3523 47.4356 52.5208 47.9886 52.858C48.5455 53.1951 48.983 53.6553 49.3011 54.2386C49.6231 54.8182 49.7822 55.4848 49.7784 56.2386C49.7822 56.9924 49.6117 57.6648 49.267 58.2557C48.9261 58.8466 48.4527 59.3125 47.8466 59.6534C47.2443 59.9905 46.553 60.1591 45.7727 60.1591ZM52.0128 60V48.3636H53.7685V58.4886H59.0412V60H52.0128Z" fill="#E8FCF1"/>
</g>
<defs>
<clipPath id="clip0_10981_6430">
<rect width="64" height="64" fill="white"/>
</clipPath>
</defs>
</svg>
