<svg width="64" height="64" viewBox="0 0 64 64" fill="none" xmlns="http://www.w3.org/2000/svg">
<g clip-path="url(#clip0_11125_6419)">
<rect width="64" height="64" fill="#FFAF1D"/>
<g clip-path="url(#clip1_11125_6419)">
<path d="M32 64C49.6731 64 64 49.6731 64 32C64 14.3269 49.6731 0 32 0C14.3269 0 0 14.3269 0 32C0 49.6731 14.3269 64 32 64Z" fill="#FFAF1D"/>
<path d="M33.5998 37.9904V40.2304C33.5998 40.5376 33.779 40.8448 34.0606 40.9728L40.3966 44.1216C40.6654 44.2496 40.819 44.5184 40.819 44.8V45.5936C40.819 45.8752 40.6654 46.144 40.3966 46.272L32.6142 50.1376C32.2174 50.3424 31.7566 50.3424 31.3598 50.1376L23.5774 46.272C23.3086 46.144 23.155 45.8752 23.155 45.5936V44.8C23.155 44.5184 23.3086 44.2496 23.5774 44.1216L29.9134 40.9728C30.195 40.8448 30.3742 40.5376 30.3742 40.2304V37.9904C30.3742 37.7088 30.1566 37.44 29.8622 37.4144C28.9406 37.2992 28.1854 37.1456 27.6222 36.9536C26.4574 36.5824 25.5614 35.6096 25.2414 34.4064L20.6206 16.9856L20.5054 16.5888C20.5054 14.976 25.651 13.6832 31.987 13.6832C38.323 13.6832 43.4686 14.976 43.4686 16.5888L43.3534 16.9856L38.7326 34.4064C38.4254 35.5968 37.5294 36.5568 36.3518 36.9536C35.7758 37.1584 35.0334 37.312 34.1118 37.4144C33.8302 37.44 33.5998 37.7088 33.5998 37.9904Z" fill="white"/>
</g>
</g>
<defs>
<clipPath id="clip0_11125_6419">
<rect width="64" height="64" fill="white"/>
</clipPath>
<clipPath id="clip1_11125_6419">
<rect width="64" height="64" fill="white"/>
</clipPath>
</defs>
</svg>
