<svg width="40" height="40" viewBox="0 0 40 40" fill="none" xmlns="http://www.w3.org/2000/svg">
<circle cx="20" cy="20" r="20" fill="#23252D"/>
<g clip-path="url(#clip0_1_6)">
<path d="M19.9942 39.7344L19.9967 33.0348C19.3217 33.0348 18.6415 32.981 17.9756 32.8746L16.9363 39.4927C17.9442 39.6529 18.9731 39.7344 19.9955 39.7344H19.9942ZM23.052 39.4953C24.0626 39.335 25.0667 39.0946 26.0381 38.7781L23.9882 32.4043C23.3484 32.6132 22.6852 32.7721 22.018 32.8772L23.052 39.4953ZM13.9489 38.7741L16.004 32.4017C15.3629 32.1928 14.7349 31.9301 14.1356 31.6227L11.109 37.5905C12.0191 38.0582 12.9748 38.4562 13.9489 38.7741ZM28.8767 37.5984C29.788 37.132 30.6694 36.5882 31.4972 35.9826L27.5788 30.5652C27.0343 30.9646 26.4546 31.3219 25.8553 31.628L28.8767 37.5984ZM8.48983 35.9721L12.4121 30.5573C11.8703 30.1606 11.3532 29.714 10.8727 29.2319L6.16051 33.9662L6.16442 33.9702C6.88776 34.6979 7.66987 35.3718 8.48983 35.9721ZM33.7951 34.0109L33.8356 33.9688C34.5564 33.2437 35.2249 32.4582 35.8229 31.6345L30.4422 27.6871C30.0479 28.2309 29.6052 28.7511 29.1274 29.2332L29.0608 29.3015L31.3248 31.4519L33.7951 34.0109ZM4.16804 31.6214L9.55133 27.6778C9.15444 27.1301 8.79929 26.5468 8.49373 25.9439L2.56075 28.9849C3.02427 29.9005 3.56482 30.7872 4.16804 31.62V31.6214ZM37.4328 28.998C37.8976 28.0824 38.2932 27.1208 38.6105 26.1409L32.2767 24.0719C32.0691 24.7169 31.8079 25.3488 31.5024 25.9517L37.4328 28.998ZM1.38694 26.1264L7.72211 24.0627C7.51449 23.4191 7.35651 22.7517 7.25072 22.0804L0.67274 23.1235C0.832031 24.1402 1.07228 25.1504 1.38694 26.1278V26.1264ZM39.326 23.1379C39.4853 22.1238 39.5663 21.0887 39.5676 20.0614L32.9086 20.0575C32.9086 20.7366 32.8551 21.421 32.7493 22.0923L39.326 23.1379ZM7.09275 20.047C7.09275 19.3678 7.1463 18.6821 7.25072 18.0121L0.67274 16.9691C0.513446 17.9832 0.433802 19.0184 0.432495 20.0456H7.09148L7.09275 20.047ZM32.7519 18.0226L39.3299 16.9835C39.1719 15.9668 38.9317 14.9566 38.6183 13.9792L32.2819 16.0391C32.4895 16.684 32.6475 17.3501 32.7519 18.0213V18.0226ZM7.72211 16.0312C7.92969 15.3862 8.19082 14.753 8.49505 14.15L2.56205 11.1077C2.09854 12.0232 1.70292 12.9848 1.38694 13.9648L7.72079 16.0312H7.72211ZM31.5102 14.1592L37.4458 11.1221C36.9823 10.2052 36.4418 9.3185 35.8399 8.48565L30.4539 12.4265C30.8495 12.9744 31.2047 13.5576 31.5102 14.1606V14.1592ZM9.55397 12.416C9.94959 11.8696 10.3935 11.3467 10.874 10.8647L10.8871 10.8515L6.17877 6.11454L6.16573 6.12767C5.44239 6.85544 4.77126 7.64494 4.17196 8.4712L9.55397 12.416ZM29.1509 10.8883L30.5727 9.42885L33.8461 6.13685L33.8356 6.12635C33.1162 5.40254 32.3367 4.73129 31.5194 4.13095L27.5945 9.54311C28.1351 9.93986 28.6508 10.3839 29.1274 10.8647L29.1509 10.8883ZM12.4278 9.52866C12.9722 9.13064 13.5519 8.77332 14.1512 8.46725L11.1338 2.49547C10.2224 2.96182 9.34112 3.50434 8.51336 4.10993L12.4278 9.52866ZM25.8723 8.47774L28.9028 2.51255C27.9927 2.0449 27.0383 1.64555 26.0642 1.32765L24.0052 7.69878C24.6463 7.90894 25.2743 8.17035 25.8736 8.47906L25.8723 8.47774ZM16.021 7.69092C16.6621 7.48334 17.3254 7.32438 17.9912 7.2193L16.9611 0.599902C15.9518 0.758853 14.9464 0.999248 13.975 1.31583L16.021 7.69092ZM22.0349 7.22325L23.0768 0.605154C22.0689 0.444892 21.04 0.362133 20.019 0.362133L20.0124 7.06165C20.6875 7.06165 21.3677 7.11685 22.0349 7.22325Z" fill="white"/>
<path d="M19.998 33.3309V26.5976C19.4355 26.5976 18.8743 26.5237 18.3317 26.3798L16.5941 32.8847C17.7032 33.1804 18.8479 33.3309 19.998 33.3309ZM23.402 32.8847C24.515 32.5876 25.5859 32.1453 26.5814 31.5697L23.2118 25.7394C22.7272 26.0193 22.207 26.2345 21.6656 26.3784L23.402 32.8847ZM13.4132 31.5684L16.7842 25.7394C16.3009 25.4595 15.8533 25.115 15.4519 24.7149L15.3899 24.6542L13.2627 26.8933L10.6523 29.4375L10.6906 29.4744C11.5066 30.2904 12.423 30.994 13.4145 31.5684H13.4132ZM29.3054 29.4771H29.3068C30.1214 28.6598 30.8252 27.7449 31.3982 26.7547L25.5701 23.3828C25.2901 23.866 24.9455 24.3136 24.5454 24.7136L29.3054 29.4771ZM8.58987 26.7402L14.4233 23.3762C14.1434 22.8916 13.9295 22.3714 13.7856 21.8288L7.2774 23.5597C7.57316 24.6727 8.01547 25.7434 8.58987 26.7402ZM32.716 23.5768C33.0118 22.4678 33.1623 21.3232 33.1636 20.1732L26.4296 20.1706C26.4296 20.7344 26.3557 21.2954 26.2104 21.8381L32.716 23.5768ZM13.569 20.1627C13.569 19.5989 13.643 19.0378 13.7895 18.4952L7.28531 16.7524C6.98822 17.8615 6.83636 19.0061 6.83636 20.156L13.5703 20.1627H13.569ZM26.2118 18.5031L32.7186 16.7696C32.4215 15.6566 31.9792 14.5859 31.4048 13.5904L25.5727 16.9571C25.8526 17.4416 26.0678 17.9618 26.2118 18.5031ZM14.4299 16.9492C14.7059 16.4726 15.0465 16.0303 15.44 15.6342L15.4572 15.617L13.0488 13.2089L10.7328 10.8205L10.6906 10.8615C9.87721 11.6747 9.17476 12.5871 8.60305 13.5746L14.4299 16.9492ZM24.5494 15.6249L26.934 13.2406L29.3675 10.9222L29.3068 10.8601C28.4934 10.0469 27.5783 9.34315 26.5894 8.77016L23.2158 14.5978C23.6925 14.8737 24.1361 15.2144 24.5322 15.6078L24.5494 15.6249ZM16.7881 14.5938C17.2714 14.3139 17.7917 14.1 18.3343 13.9548L16.602 7.44861C15.4876 7.74565 14.4181 8.18663 13.4212 8.76226L16.7881 14.5938ZM21.6696 13.9575L23.4112 7.45256C22.3021 7.15548 21.1573 7.00499 20.0072 7.00367L20.0033 13.737C20.5671 13.737 21.1283 13.8109 21.671 13.9561L21.6696 13.9575Z" fill="white"/>
</g>
<defs>
<clipPath id="clip0_1_6">
<rect width="40" height="40" fill="white"/>
</clipPath>
</defs>
</svg>