<svg class="ui-icon css-1ehm8ev" viewBox="0 0 36 36" xmlns="http://www.w3.org/2000/svg"><path d="M6.1761 5.51414L16 0L25.8239 5.51414L22.2122 7.55123L16 4.07415L9.78781 7.55123L6.1761 5.51414ZM25.8239 12.4683L22.2122 10.4312L16 13.9083L9.78781 10.4312L6.1761 12.4683V16.5424L12.3882 20.0195V26.9737L16 29.0107L19.6118 26.9737V20.0195L25.8239 16.5424V12.4683ZM25.8239 23.4966V19.4225L22.2122 21.4595V25.5337L25.8239 23.4966ZM28.3883 24.9366L22.1761 28.4137V32.4878L32 26.9737V15.9454L28.3883 17.9825V24.9366ZM24.7765 8.99123L28.3883 11.0283V15.1025L32 13.0654V8.99123L28.3883 6.95415L24.7765 8.99123ZM12.3882 29.8888V33.9629L16 36L19.6118 33.9629V29.8888L16 31.9258L12.3882 29.8888ZM6.1761 23.4966L9.78781 25.5337V21.4595L6.1761 19.4225V23.4966ZM12.3882 8.99123L16 11.0283L19.6118 8.99123L16 6.95415L12.3882 8.99123ZM3.61173 11.0283L7.22347 8.99123L3.61173 6.95415L0 8.99123V13.0654L3.61173 15.1025V11.0283ZM3.61173 17.9825L0 15.9454V26.9737L9.82388 32.4878V28.4137L3.61173 24.9366V17.9825Z" fill="#F0B90B"></path></svg>