<svg width="64" height="64" viewBox="0 0 64 64" fill="none" xmlns="http://www.w3.org/2000/svg">
<g clip-path="url(#clip0_3235_4423)">
<path d="M64 0H0V64H64V0Z" fill="#8247E5"/>
<g clip-path="url(#clip1_3235_4423)">
<path d="M43.2292 24.6107C42.4271 24.1554 41.3958 24.1554 40.4792 24.6107L34.0625 28.3671L29.7083 30.7576L23.4062 34.514C22.6042 34.9693 21.5729 34.9693 20.6562 34.514L15.7292 31.5544C14.9271 31.099 14.3542 30.1884 14.3542 29.1639V23.4724C14.3542 22.5617 14.8125 21.6511 15.7292 21.0819L20.6562 18.2362C21.4583 17.7808 22.4896 17.7808 23.4062 18.2362L28.3333 21.1958C29.1354 21.6511 29.7083 22.5617 29.7083 23.5862V27.3426L34.0625 24.8383V20.9681C34.0625 20.0575 33.6042 19.1468 32.6875 18.5777L23.5208 13.2276C22.7187 12.7723 21.6875 12.7723 20.7708 13.2276L11.375 18.6915C10.4583 19.1468 10 20.0575 10 20.9681V31.6682C10 32.5788 10.4583 33.4895 11.375 34.0586L20.6562 39.4087C21.4583 39.864 22.4896 39.864 23.4062 39.4087L29.7083 35.7661L34.0625 33.2618L40.3646 29.6192C41.1667 29.1639 42.1979 29.1639 43.1146 29.6192L48.0417 32.465C48.8437 32.9203 49.4167 33.831 49.4167 34.8555V40.547C49.4167 41.4577 48.9583 42.3683 48.0417 42.9375L43.2292 45.7832C42.4271 46.2385 41.3958 46.2385 40.4792 45.7832L35.5521 42.9375C34.75 42.4821 34.1771 41.5715 34.1771 40.547V36.9044L29.8229 39.4087V43.1651C29.8229 44.0758 30.2812 44.9864 31.1979 45.5556L40.4792 50.9056C41.2812 51.3609 42.3125 51.3609 43.2292 50.9056L52.5104 45.5556C53.3125 45.1002 53.8854 44.1896 53.8854 43.1651V32.3512C53.8854 31.4405 53.4271 30.5299 52.5104 29.9607L43.2292 24.6107Z" fill="white"/>
</g>
</g>
<defs>
<clipPath id="clip0_3235_4423">
<rect width="64" height="64" fill="white"/>
</clipPath>
<clipPath id="clip1_3235_4423">
<rect width="44" height="38.1333" fill="white" transform="translate(10 13)"/>
</clipPath>
</defs>
</svg>
