<svg width="109" height="109" viewBox="0 0 109 109" fill="none" xmlns="http://www.w3.org/2000/svg">
<path d="M12.1252 6.88673C10.3619 6.79673 8.53721 6.70333 6.99001 7.98483C6.21511 8.62663 5.22861 9.63063 5.60771 10.9342C5.64508 11.0633 5.69373 11.1888 5.75311 11.3093C5.76951 11.3423 5.79181 11.3698 5.80961 11.4015C5.85278 11.4825 5.90156 11.5604 5.95561 11.6346C5.97971 11.666 6.01001 11.6919 6.03561 11.7216C6.09081 11.7883 6.15059 11.8511 6.21451 11.9094C6.24521 11.9361 6.28181 11.9574 6.31451 11.9824C6.38299 12.0372 6.45494 12.0875 6.52991 12.133C6.56771 12.1549 6.61111 12.1715 6.65091 12.1915C6.73202 12.2342 6.81549 12.2722 6.90091 12.3053C6.94701 12.3223 6.99871 12.3343 7.04701 12.3492C7.13701 12.3772 7.22761 12.4053 7.32571 12.4261C7.38291 12.4382 7.44571 12.4452 7.50571 12.4549C7.60271 12.4705 7.69911 12.4865 7.80291 12.4957C7.87541 12.5021 7.95361 12.5033 8.02941 12.5066C8.10731 12.5099 8.18041 12.5177 8.26191 12.5177C8.30471 12.5177 8.34821 12.5177 8.39191 12.5164C10.2313 12.478 12.1036 12.4874 13.9133 12.4975C14.444 12.5003 14.9746 12.5024 15.5051 12.5037C15.6803 12.5043 15.8551 12.5056 16.0309 12.5059C16.0186 12.5959 16.0043 12.6834 15.9909 12.7716C15.9741 12.8783 15.9585 12.9863 15.9394 13.0905C15.9194 13.1974 15.8969 13.3005 15.8749 13.4045C15.8536 13.5056 15.8336 13.608 15.81 13.7066C15.7855 13.809 15.7574 13.9074 15.7305 14.0066C15.7047 14.1022 15.6805 14.1991 15.6521 14.2921C15.6228 14.3892 15.5897 14.4821 15.5579 14.5768C15.5279 14.6668 15.4986 14.7588 15.4659 14.8468C15.4315 14.9394 15.3932 15.028 15.3559 15.1179C15.3212 15.2024 15.288 15.2885 15.2509 15.3706C15.2115 15.4582 15.1681 15.5415 15.1261 15.6264C15.0868 15.7058 15.0491 15.787 15.0075 15.8641C14.9629 15.9468 14.9142 16.0253 14.8669 16.1054C14.8233 16.1794 14.7813 16.2554 14.7354 16.3269C14.6854 16.4049 14.6314 16.4784 14.5789 16.5536C14.5308 16.6225 14.4845 16.6936 14.4342 16.7598C14.3788 16.833 14.3192 16.9018 14.2612 16.9723C14.2089 17.0358 14.1585 17.1012 14.104 17.1623C14.0429 17.2311 13.9773 17.2954 13.9134 17.3613C13.8572 17.4193 13.8034 17.4794 13.7447 17.5353C13.6775 17.5996 13.6057 17.6592 13.5357 17.7207C13.4757 17.7732 13.4179 17.828 13.3557 17.8785C13.2817 17.9385 13.2029 17.9943 13.1257 18.0515C13.0628 18.0983 13.0022 18.1474 12.9374 18.1922C12.8556 18.2486 12.7689 18.3003 12.684 18.3536C12.619 18.3944 12.5563 18.4377 12.4894 18.4767C12.3979 18.5301 12.3014 18.5784 12.2064 18.6283C12.1412 18.6626 12.0787 18.6994 12.0118 18.7321C11.903 18.7852 11.7889 18.8333 11.6757 18.8821C11.6181 18.907 11.5631 18.9346 11.5044 18.9584C11.3302 19.029 11.151 19.0949 10.9668 19.1561C10.7129 19.2403 10.4583 19.3126 10.2029 19.3728C10.1217 19.3921 10.0403 19.4036 9.95901 19.4208C9.78491 19.4575 9.61091 19.4959 9.43651 19.5231C9.31911 19.5415 9.20171 19.5512 9.08421 19.5656C8.94621 19.5825 8.80811 19.6033 8.67011 19.6151C8.53011 19.6272 8.39011 19.6311 8.25011 19.6383C8.13521 19.6442 8.02011 19.6541 7.90541 19.657C7.75471 19.6608 7.60481 19.6578 7.45461 19.657C7.35111 19.657 7.24701 19.6592 7.14381 19.657C6.98591 19.6531 6.82921 19.6436 6.67221 19.6356C6.57761 19.6307 6.48221 19.6285 6.38811 19.6223C6.23041 19.6123 6.07421 19.5976 5.91811 19.5841C5.82531 19.5761 5.73181 19.57 5.63941 19.5611C5.50011 19.5477 5.36251 19.5317 5.22431 19.5166C5.12121 19.5053 5.01731 19.4951 4.91491 19.4831C0.866009 16.2554 -0.501991 11.6418 1.25491 7.13563C3.07081 2.47903 6.96351 0.196234 12.5051 0.532434C13.7533 0.948655 14.9613 1.47691 16.1144 2.11073L16.1186 2.11323C16.3072 2.22097 16.493 2.33303 16.676 2.44943L16.6805 2.45243C16.8631 2.56897 17.0425 2.69023 17.2186 2.81623L17.2252 2.82113C17.4 2.94673 17.5713 3.07743 17.739 3.21323L17.7526 3.22473C17.9169 3.35867 18.0774 3.49787 18.2341 3.64233L18.2616 3.66903C18.4121 3.80903 18.5588 3.95453 18.7016 4.10553C18.7176 4.12253 18.7326 4.14083 18.7486 4.15803C18.8817 4.30153 19.0119 4.44903 19.1372 4.60293C19.1638 4.63553 19.1887 4.67053 19.2149 4.70363C19.3261 4.84363 19.4349 4.98703 19.5394 5.13623C19.5787 5.19253 19.6152 5.25223 19.6534 5.30973C19.7394 5.43893 19.8245 5.56973 19.9052 5.70523C19.9595 5.79693 20.01 5.89333 20.0616 5.98823C20.1196 6.09423 20.1782 6.19953 20.2329 6.30953C20.3029 6.45173 20.3689 6.59953 20.4335 6.74883C20.4564 6.80123 20.4801 6.85253 20.5023 6.90583L13.0288 6.92583C12.7288 6.91723 12.427 6.90213 12.1252 6.88673Z" fill="#CBA68D"/>
<path d="M7.73717 20.16C7.67717 20.16 7.61717 20.1595 7.55717 20.159L7.45047 20.1581H7.33707L7.12997 20.1572C6.99997 20.154 6.86997 20.1472 6.74097 20.1402L4.71307 19.9633L4.60147 19.8743C0.373768 16.5035 -1.05173 11.6736 0.788268 6.95439C2.68997 2.07599 6.75217 -0.317012 12.5346 0.0336876L12.67 0.0608876C13.9477 0.484702 15.1835 1.02563 16.3618 1.67679C16.5618 1.79109 16.7546 1.90679 16.9443 2.02819C17.1392 2.15269 17.3262 2.27879 17.5095 2.41019C17.6995 2.54669 17.8785 2.68319 18.0537 2.82539C18.2403 2.97799 18.409 3.12369 18.5737 3.27539C18.7609 3.45089 18.9155 3.60359 19.0654 3.76269C19.2554 3.96929 19.3926 4.12489 19.5247 4.28709L19.6067 4.39319C19.724 4.54129 19.8391 4.69239 19.9491 4.84989L20.0308 4.97319C20.1608 5.16909 20.25 5.30659 20.3351 5.45009C20.38 5.52609 20.4223 5.60419 20.4645 5.68229L20.0845 6.02929L20.523 5.78929C20.5767 5.88729 20.6303 5.98529 20.681 6.08719C20.7555 6.23799 20.8248 6.39349 20.8928 6.55049L21.2518 7.40419L13.0305 7.42659C12.7193 7.41789 12.422 7.40279 12.1247 7.38769L12.0979 7.38639C10.3536 7.29749 8.70597 7.21359 7.30937 8.37019C6.23577 9.25939 5.85937 10.0073 6.08827 10.795C6.11746 10.8958 6.15544 10.9939 6.20177 11.0881C6.27957 11.2165 6.31177 11.2774 6.35287 11.3308C6.46007 11.447 6.49817 11.4931 6.54347 11.5326C6.67447 11.628 6.72427 11.6678 6.78117 11.7007L6.87607 11.7451C6.94045 11.7793 7.00673 11.8099 7.07457 11.8366L7.04757 12.3496L7.19547 11.872C7.27547 11.8967 7.34917 11.9203 7.42977 11.9373L7.58577 11.9616C7.68217 11.9772 7.76187 11.9905 7.84727 11.998L8.26227 12.018L8.38227 12.0168C10.2659 11.9774 12.2054 11.9883 13.9166 11.9978L16.6042 12.0069L16.4923 12.8029L16.03 12.86L16.4718 12.9281L16.3786 13.4364L15.8577 13.484L16.3477 13.5853L16.2317 14.0688L15.7096 14.0844L16.1928 14.2128L16.0546 14.6689L15.5323 14.6536L16.007 14.8107L15.8454 15.2435L15.3254 15.1927L15.789 15.3799L15.6053 15.7858L15.0908 15.6984L15.5408 15.917L15.4473 16.1025C15.411 16.1699 15.3724 16.2347 15.3336 16.2995L14.8271 16.1743L15.2599 16.4243L15.1561 16.5973C15.1155 16.6608 15.0725 16.7218 15.0293 16.7828L14.5343 16.6186L14.9468 16.9011L14.8328 17.0619C14.7876 17.1219 14.74 17.179 14.6928 17.2361L14.2114 17.0344L14.6007 17.3482L14.4777 17.4955C14.4277 17.5516 14.3753 17.6055 14.3227 17.6588L13.8584 17.4198L14.2216 17.7635L14.0904 17.8973C14.0357 17.9497 13.9784 17.9995 13.921 18.0491L13.4758 17.775L13.8103 18.1466L13.6715 18.2666C13.611 18.3159 13.5478 18.3625 13.4844 18.409L13.0612 18.1012L13.3654 18.498L13.2219 18.604C13.1546 18.6504 13.0844 18.694 13.0141 18.7377L12.6146 18.3989L12.8871 18.818L12.7417 18.909C12.6652 18.9536 12.5856 18.9952 12.5059 19.0366L12.133 18.6686L12.3735 19.107L12.2319 19.1816C12.1326 19.2301 12.0292 19.2748 11.9258 19.3194L11.6058 18.9142L11.8147 19.3684L11.6927 19.4221C11.5085 19.4968 11.3192 19.5664 11.1246 19.6311C10.8568 19.7199 10.5883 19.7961 10.3191 19.8596L10.1506 19.8936L9.95937 19.4211L9.99337 19.925C9.83337 19.9589 9.67397 19.9926 9.51407 20.0175C9.43017 20.0307 9.34617 20.04 9.26217 20.0491L9.02437 20.0778C8.92057 20.0914 8.81677 20.1048 8.71317 20.1137C8.60627 20.1229 8.49967 20.1278 8.39317 20.1326L7.91817 20.1572C7.85697 20.1591 7.79707 20.16 7.73717 20.16ZM7.45627 19.1582L7.56627 19.159C7.67447 19.16 7.78267 19.1611 7.89137 19.1583L8.34707 19.1344C8.44017 19.1302 8.53337 19.1262 8.62657 19.1182C8.71547 19.1106 8.80427 19.0982 8.89317 19.0871L9.35847 19.0303C9.50067 19.0081 9.64267 18.9777 9.78457 18.9476L10.0863 18.8876C10.3277 18.8301 10.5684 18.7618 10.8086 18.6827C10.9824 18.6251 11.1514 18.5629 11.3157 18.4962L11.4763 18.4245C11.6176 18.3636 11.7063 18.3255 11.7914 18.2839L12.0435 18.1501C12.1088 18.1161 12.1742 18.0824 12.2368 18.0459L13.9239 16.5954L14.9212 14.8589L15.4455 13.0043L13.9096 12.9983C12.2044 12.9888 10.272 12.9783 8.40127 13.0171L8.26077 13.0185C8.19767 13.0185 8.13877 13.015 8.07977 13.0112L7.96187 12.5049L7.94447 13.0049C7.88107 13.0026 7.81757 13.0002 7.75747 12.9949C7.64747 12.9849 7.54447 12.969 7.44147 12.9523C7.32027 12.9344 7.26907 12.9266 7.22097 12.9164C7.10967 12.8929 7.00657 12.8616 6.90377 12.8298C6.81207 12.8037 6.76797 12.7908 6.72687 12.7756C6.62531 12.7365 6.52605 12.6917 6.42957 12.6414C6.35587 12.6075 6.31587 12.5885 6.27887 12.5671C6.18703 12.5119 6.09884 12.4509 6.01487 12.3844C5.97021 12.3546 5.92718 12.3225 5.88597 12.2881C5.80748 12.2172 5.73397 12.141 5.66597 12.06C5.62784 12.0221 5.59195 11.982 5.55847 11.94C5.48993 11.847 5.42805 11.7492 5.37327 11.6475C5.34786 11.6106 5.32488 11.572 5.30447 11.5321C5.23199 11.3852 5.17263 11.2321 5.12707 11.0748C4.61217 9.30469 6.16117 8.02169 6.66997 7.59999C8.36637 6.19489 10.375 6.29729 12.1472 6.38759L12.1241 6.88699L12.1495 6.38769L12.174 6.38889C12.464 6.40369 12.754 6.41889 13.0419 6.42669L19.72 6.40839C19.6952 6.36199 19.67 6.31599 19.6447 6.26999L19.4738 5.95999C19.398 5.83229 19.3174 5.70929 19.2362 5.58719L19.1284 5.42279C19.0301 5.28209 18.927 5.14709 18.822 5.01449L19.1362 4.60329L18.7486 4.91909C18.6301 4.77369 18.5069 4.63419 18.381 4.49849C18.2017 4.30549 18.0624 4.16849 17.9198 4.03509C17.7449 3.87199 17.5921 3.74009 17.4358 3.61279C17.2631 3.47189 17.0994 3.34749 16.9326 3.22759C16.7576 3.10189 16.5856 2.98589 16.4106 2.87419C16.2306 2.75919 16.0513 2.65149 15.8697 2.54779C14.7634 1.93654 13.6036 1.42776 12.4047 1.02779C7.13507 0.728788 3.44137 2.90269 1.71997 7.31759C0.0637679 11.5656 1.33257 15.9236 5.11317 19.0022L6.69677 19.1365C6.91437 19.148 7.03437 19.1545 7.15517 19.1575L7.33057 19.1581L7.45627 19.1582Z" fill="#2B2129"/>
<path d="M13.2633 7.36581C13.3133 7.40531 13.3624 7.44581 13.4119 7.48641C13.4592 7.52481 13.5066 7.56252 13.5535 7.60162C13.6021 7.64222 13.6498 7.68431 13.698 7.72571C13.7462 7.76711 13.7928 7.80571 13.8395 7.84761C13.8819 7.88521 13.9231 7.92462 13.965 7.96302C14.0164 8.01012 14.0684 8.05652 14.119 8.10482L14.1256 8.11142C14.583 8.53947 14.9818 9.0262 15.3115 9.55891L15.3144 9.56352C15.3778 9.66878 15.4378 9.77658 15.4944 9.88691L15.5013 9.89951C15.5559 10.0066 15.6065 10.1166 15.654 10.2286L15.6648 10.2525C15.7101 10.3608 15.7509 10.4725 15.789 10.5851L15.8029 10.6236C15.8383 10.7315 15.8688 10.8425 15.897 10.9548C15.9021 10.9748 15.9084 10.9943 15.9132 11.0148C15.9383 11.1202 15.9583 11.2288 15.9768 11.3382C15.9818 11.3682 15.9884 11.3968 15.9929 11.4268C16.008 11.5268 16.0177 11.6301 16.027 11.7336C16.0309 11.7766 16.0364 11.8185 16.0392 11.8622C16.0452 11.9539 16.0459 12.0487 16.0471 12.1432C16.0471 12.1893 16.0491 12.2348 16.0485 12.2815C15.3341 12.2806 14.6196 12.2778 13.905 12.2732C13.3999 12.2701 12.8823 12.2701 12.3699 12.2682C11.0468 12.2638 9.71198 12.2638 8.38658 12.292C6.94568 12.3153 6.11008 11.8577 5.82348 10.872C5.48098 9.69561 6.40688 8.75992 7.13348 8.15842C7.25286 8.06066 7.37727 7.9692 7.50618 7.88442C7.53845 7.86295 7.57088 7.84201 7.60348 7.82161C7.72158 7.74731 7.84088 7.67811 7.96208 7.61721L7.98788 7.60321C8.11738 7.53911 8.24878 7.48432 8.38128 7.43382C8.41558 7.42082 8.45008 7.40842 8.48458 7.39622C8.60278 7.35442 8.72188 7.31622 8.84218 7.28422C8.85858 7.27972 8.87488 7.27422 8.89138 7.26992C9.02578 7.23502 9.16138 7.20682 9.29808 7.18212C9.33438 7.17562 9.37098 7.16972 9.40748 7.16382C9.52498 7.14482 9.64308 7.12861 9.76178 7.11591C9.78438 7.11351 9.80688 7.11011 9.82948 7.10791C9.96688 7.09451 10.1052 7.08521 10.2438 7.07861C10.2822 7.07681 10.3207 7.07552 10.3591 7.07422C10.4742 7.07002 10.5895 7.06765 10.7049 7.06711C10.7317 7.06711 10.7585 7.06631 10.7854 7.06641C10.9971 7.06641 11.2094 7.07201 11.4215 7.08001L11.4524 7.08102C11.6732 7.08972 11.8939 7.10101 12.1136 7.11201C12.4049 7.12701 12.6963 7.14201 12.9863 7.15071C13.0289 7.18311 13.0714 7.21652 13.114 7.24952C13.1633 7.28812 13.2134 7.32631 13.2633 7.36581Z" fill="#2B2129"/>
<path d="M8.28907 12.7926C6.67687 12.7926 5.68687 12.1937 5.34317 11.0114C4.86927 9.38341 6.33317 8.17141 6.81417 7.77311C6.94691 7.66435 7.0852 7.56255 7.22847 7.46811L7.33687 7.39811C7.46867 7.31521 7.60187 7.23811 7.73687 7.17031C7.88854 7.09418 8.04413 7.02612 8.20297 6.96641L8.31727 6.92471C8.44727 6.87851 8.57907 6.83691 8.71147 6.80121C8.91207 6.74771 9.06007 6.71671 9.20887 6.68991L9.32017 6.67111C9.45327 6.64961 9.58017 6.63231 9.70767 6.61851C9.92587 6.59581 10.0724 6.58601 10.2193 6.57851L10.3193 6.57451C10.4706 6.56911 10.5998 6.56631 10.7272 6.56641C11.0155 6.56641 11.2272 6.57171 11.4395 6.57971L12.1382 6.61201C12.4263 6.62681 12.7143 6.64131 13.0009 6.65021L13.1609 6.65521L13.3794 6.82251L13.1559 7.28181L13.4612 6.88581L13.684 7.06261L13.4565 7.52191L13.7705 7.13281L13.9797 7.30771L13.743 7.76371L14.0675 7.38371L14.2598 7.55441L14.0077 8.00181L14.3441 7.63181L14.4641 7.74311C14.9569 8.20314 15.3861 8.72694 15.7402 9.30061C15.8126 9.42061 15.8778 9.53831 15.9395 9.65861C16.0069 9.78991 16.0624 9.91041 16.1145 10.0333C16.1761 10.1786 16.2211 10.301 16.263 10.4254C16.3172 10.5867 16.351 10.7089 16.3821 10.8327C16.4274 11.0145 16.4496 11.1339 16.47 11.2544C16.504 11.4616 16.515 11.5744 16.5252 11.6884L16.5384 11.8297C16.5444 11.9221 16.5458 12.0176 16.547 12.1131L16.5486 12.2879L16.5419 12.7818L12.3684 12.7681C11.0493 12.7636 9.71837 12.7637 8.39727 12.7918C8.36077 12.7924 8.32467 12.7926 8.28907 12.7926ZM9.29767 7.18191L9.38647 7.67401C9.26227 7.69641 9.13877 7.72201 9.01647 7.75401C8.86417 7.79611 8.75717 7.83011 8.65107 7.86771C8.50064 7.92102 8.35316 7.98234 8.20927 8.05141C8.07927 8.11791 7.97377 8.17931 7.86927 8.24501L7.78287 8.30001C7.6684 8.37514 7.55795 8.45621 7.45197 8.54291C6.45677 9.36691 6.10257 10.0419 6.30337 10.7317C6.45067 11.2385 6.81947 11.8166 8.37827 11.7917C9.70527 11.7635 11.0442 11.7634 12.3714 11.7679L15.8839 11.7803L16.0269 11.733L15.529 11.7777C15.5206 11.6843 15.512 11.591 15.4984 11.5007C15.4671 11.3227 15.4493 11.225 15.4267 11.1301C15.3867 10.9757 15.3594 10.8759 15.3277 10.779C15.2808 10.6427 15.2442 10.5425 15.2034 10.4451C15.1507 10.3223 15.1051 10.223 15.0557 10.1262C14.9981 10.0147 14.9439 9.91621 14.8863 9.82101C14.5792 9.32431 14.2072 8.87078 13.7802 8.47241L12.8078 7.64461C12.5683 7.63561 12.3278 7.62351 12.0878 7.61121L11.4325 7.58001C11.1961 7.57131 10.9898 7.56611 10.7841 7.56581C10.5965 7.56701 10.4865 7.56931 10.3766 7.57331L10.2433 7.07801L10.2672 7.57751C10.1372 7.58371 10.0072 7.59231 9.87777 7.60491C9.70507 7.62421 9.59577 7.63921 9.48697 7.65681L9.29767 7.18191Z" fill="#2B2129"/>
<path d="M17.5821 21.7234C14.5969 21.9111 11.6001 21.7581 8.64953 21.2672C7.37327 21.089 6.17144 20.5603 5.17773 19.7399C5.22263 19.7449 5.26843 19.7486 5.31353 19.7534C5.44533 19.7674 5.57757 19.7804 5.71023 19.7926C5.81023 19.8019 5.90973 19.8107 6.01023 19.8189C6.14453 19.8299 6.27943 19.8389 6.41453 19.8475C6.51543 19.8539 6.61603 19.8602 6.71723 19.8651C6.85213 19.8716 6.98723 19.8751 7.12313 19.8788C7.22523 19.8815 7.32713 19.8846 7.42963 19.8853C7.46593 19.8853 7.50183 19.8876 7.53823 19.8876C7.60173 19.8876 7.66583 19.8826 7.72943 19.8817C7.90613 19.8795 8.08293 19.8746 8.26023 19.8655C8.36363 19.8602 8.46683 19.8528 8.57023 19.845C8.74383 19.8318 8.91743 19.814 9.09123 19.793C9.19343 19.7806 9.29553 19.7684 9.39783 19.753C9.58373 19.7252 9.76943 19.6896 9.95523 19.6514C10.0434 19.6333 10.1316 19.6183 10.2198 19.5977C10.4924 19.5337 10.7648 19.4603 11.0364 19.3702C11.2274 19.3068 11.4132 19.2385 11.5937 19.1653C14.275 18.0776 15.8022 15.8912 16.2569 12.5065H16.2695L16.2729 12.4024L16.2882 12.2816H16.2722C16.2736 12.1634 16.2743 12.0455 16.2687 11.9316C16.2663 11.8808 16.2597 11.8324 16.2559 11.7824C16.2483 11.6831 16.2412 11.5835 16.2285 11.4873C16.2208 11.4285 16.2092 11.3722 16.1997 11.3146C16.1857 11.2301 16.1725 11.1452 16.1547 11.0631C16.1419 11.0038 16.1257 10.9466 16.111 10.8885C16.091 10.8112 16.0723 10.7336 16.0496 10.6585C16.0319 10.6002 16.0115 10.5439 15.992 10.4869C15.9674 10.4151 15.943 10.3432 15.9156 10.2733C15.8934 10.2165 15.869 10.1613 15.8449 10.1057C15.8159 10.0385 15.7868 9.97146 15.7549 9.90566C15.7285 9.85076 15.7003 9.79706 15.6722 9.74336C15.6391 9.68016 15.6056 9.61716 15.5703 9.55556C15.5403 9.50286 15.5087 9.45106 15.4769 9.39946C15.4401 9.33946 15.4027 9.28026 15.364 9.22196C15.3304 9.17136 15.296 9.12136 15.2608 9.07196C15.2208 9.01549 15.1801 8.95966 15.1385 8.90446C15.1017 8.85573 15.0643 8.80753 15.0263 8.75986C14.9835 8.70619 14.9398 8.65316 14.8954 8.60076C14.8562 8.55446 14.8169 8.50856 14.7768 8.46326C14.7311 8.41186 14.6846 8.36136 14.6378 8.31116C14.5963 8.26686 14.555 8.22266 14.5127 8.17926C14.465 8.13036 14.4166 8.08246 14.3679 8.03466C14.3249 7.99246 14.282 7.95016 14.2379 7.90876C14.1879 7.86186 14.1379 7.81596 14.0879 7.77006C14.0436 7.73006 13.9996 7.68936 13.9549 7.65006C13.9036 7.60496 13.8517 7.56096 13.7998 7.51676C13.7549 7.47856 13.7098 7.43996 13.6651 7.40246C13.6116 7.35816 13.5579 7.31516 13.5042 7.27196C13.4601 7.23636 13.4162 7.20036 13.3719 7.16546L13.3538 7.15086L20.6085 7.13086C20.6746 7.22586 20.7305 7.32326 20.7898 7.41986C20.8438 7.50796 20.9036 7.59476 20.9522 7.68406C21.0095 7.78926 21.0557 7.89656 21.1059 8.00306C21.1486 8.09386 21.1966 8.18356 21.2345 8.27516C21.2791 8.38296 21.3138 8.49196 21.3522 8.60066C21.3846 8.69256 21.4222 8.78386 21.4501 8.87616C21.484 8.98696 21.5092 9.09826 21.5375 9.20946C21.5607 9.30026 21.5881 9.39086 21.6075 9.48166C21.6324 9.59626 21.6498 9.71056 21.6697 9.82496C21.6849 9.91216 21.7038 9.99966 21.7164 10.0866C21.7343 10.2107 21.7464 10.3335 21.7591 10.4566C21.7672 10.5325 21.7791 10.6092 21.7851 10.6846C21.7977 10.8293 21.8051 10.9717 21.8127 11.114C21.8155 11.1664 21.8205 11.22 21.8227 11.272C21.831 11.4654 21.8356 11.6561 21.8379 11.843C21.8672 14.19 21.8661 16.5767 21.8652 18.8851C21.8648 19.8199 21.865 20.7546 21.8658 21.6894C20.4378 21.6516 18.9867 21.6878 17.5821 21.7234Z" fill="#BB9168"/>
<path d="M14.6205 22.2741C12.5849 22.308 10.5511 22.135 8.55046 21.758C7.18368 21.565 5.89816 20.9934 4.83926 20.108L3.72656 19.078L5.23346 19.2438L5.29296 19.6175L5.33396 19.5732L5.36756 19.257L7.43406 19.3861L7.53926 19.8884L7.54666 19.3884L7.72406 19.3829C7.89406 19.3807 8.06476 19.376 8.23566 19.3673L8.53366 19.3473C8.69976 19.3347 8.86596 19.3173 9.03236 19.2973L9.32506 19.2593C9.50206 19.2329 9.67876 19.1988 9.85556 19.1625L10.1069 19.1116C10.3651 19.0511 10.623 18.9816 10.8802 18.8964C11.0608 18.8364 11.2364 18.7718 11.407 18.7028C13.908 17.6881 15.3328 15.6398 15.7625 12.4407L15.7746 12.3507L15.7732 12.2766C15.7744 12.1685 15.7753 12.0608 15.7702 11.9566L16.2568 11.7831L15.7583 11.8211C15.7503 11.7164 15.7443 11.6335 15.7337 11.5532L15.3981 10.3309L14.6366 9.07256L13.0633 7.55896L11.9346 6.67006L13.3532 6.65156L20.8705 6.63086L21.0205 6.84596C21.0766 6.92596 21.1264 7.00846 21.176 7.09056L21.2693 7.24106C21.3125 7.30876 21.3553 7.37666 21.3929 7.44556C21.4405 7.53306 21.4817 7.62166 21.5229 7.71036L21.6016 7.87616C21.6357 7.94536 21.6694 8.01456 21.6984 8.08466C21.7351 8.17336 21.7662 8.26276 21.7969 8.35236L21.8578 8.52296C21.8835 8.59206 21.9089 8.66116 21.9301 8.73066C21.9576 8.82066 21.9801 8.91066 22.0026 9.00136L22.0478 9.17626C22.0659 9.24286 22.0838 9.30956 22.0978 9.37626C22.1178 9.46996 22.1341 9.56336 22.1498 9.65676L22.2129 10.0156C22.2282 10.1211 22.2392 10.2256 22.2501 10.33L21.7716 10.5491L22.2678 10.4879L22.2849 10.6422C22.2974 10.7863 22.3049 10.9282 22.3127 11.07L22.3239 11.2515C22.3325 11.4499 22.3372 11.6457 22.3396 11.8376C22.3687 14.172 22.3678 16.5457 22.3669 18.8426L22.3684 22.2036L21.8543 22.19C20.4291 22.1523 18.989 22.1888 17.5963 22.2241L17.5837 21.7241L17.5891 22.2241C16.6084 22.2491 15.6171 22.2741 14.6205 22.2741ZM17.5632 21.2247L17.5837 21.7241L17.5705 21.2247C18.8105 21.1933 20.0871 21.1609 21.3669 21.1801V18.8859C21.3678 16.5498 21.3687 14.1805 21.3397 11.8504C21.3374 11.6684 21.3329 11.4828 21.3249 11.2945L21.8149 11.1151L21.3156 11.1418C21.3076 10.9928 21.3007 10.8618 21.2892 10.729L21.2641 10.5109C21.2465 10.3428 21.2371 10.2514 21.2241 10.1592L21.1797 9.91176C21.1515 9.74516 21.1385 9.66696 21.1215 9.58866L21.0553 9.33406C21.0143 9.16896 20.9965 9.09616 20.9743 9.02406L20.883 8.76856C20.8275 8.60786 20.8036 8.53746 20.7748 8.46786C20.7541 8.41786 20.7293 8.36786 20.7048 8.31886L20.6557 8.21756C20.5833 8.06086 20.5521 7.99216 20.5157 7.92466C20.4891 7.87586 20.4581 7.82806 20.4274 7.78006L20.3662 7.68276L20.3362 7.63276L14.6894 7.64816L15.7832 8.94636L16.3837 10.0914C16.4121 10.164 16.4377 10.2383 16.4632 10.3127L16.5307 10.5143C16.5529 10.5876 16.5721 10.6628 16.5907 10.7381L16.6456 10.9581C16.6626 11.0367 16.6756 11.1181 16.6895 11.1987L16.7265 11.4228C16.7394 11.5208 16.7473 11.6221 16.755 11.7235L16.76 11.7835H16.8417L16.7711 12.4662V12.5235L16.7555 13.0074H16.6897C16.1377 16.3469 14.5297 18.5155 11.7838 19.6296C11.5932 19.7068 11.3973 19.7788 11.1959 19.8456C10.9099 19.9405 10.6231 20.018 10.3359 20.0856L10.1466 20.1249C9.86306 20.1824 9.66846 20.2196 9.47366 20.2487L9.16476 20.2887C8.97186 20.312 8.79096 20.3306 8.60996 20.3444L8.28776 20.3657C8.10386 20.3751 7.92076 20.3802 7.73776 20.3825L7.53836 20.3884L7.26316 20.3828C7.74994 20.5487 8.24759 20.6808 8.75256 20.7782C11.6631 21.2601 14.6188 21.4099 17.5632 21.2247Z" fill="#2B2129"/>
<path d="M37.9556 107.384C37.9278 107.426 37.9036 107.473 37.8779 107.518C37.8535 107.561 37.8263 107.6 37.804 107.646H33.2045C32.5701 107.618 31.9417 107.509 31.3345 107.323L31.1554 107.277C25.4114 105.887 21.8754 101.097 21.9281 94.7747C22.0744 77.124 22.0505 59.1767 22.0274 41.8202C22.0185 35.2186 22.0127 28.6169 22.0099 22.0151V21.8992C22.0081 20.927 22.0078 19.9549 22.009 18.9828C22.0099 16.6764 22.0109 14.2912 21.982 11.9457C22.0358 10.4665 21.7219 8.99697 21.0684 7.6688C20.9573 7.46492 20.8347 7.26748 20.7013 7.0774C20.6111 6.8464 20.5144 6.6234 20.4113 6.4084C20.3763 6.3351 20.337 6.2671 20.3006 6.1955C20.2285 6.0537 20.1568 5.9113 20.0793 5.7762C20.0328 5.695 19.9822 5.6189 19.9337 5.54C19.861 5.4214 19.7889 5.3019 19.712 5.1885C19.6575 5.1085 19.5996 5.0323 19.5432 4.9544C19.4671 4.8495 19.3916 4.7444 19.3121 4.6434C19.251 4.5661 19.187 4.4928 19.124 4.4182C19.044 4.3236 18.964 4.2287 18.8817 4.1382C18.8148 4.0651 18.7456 3.9951 18.6768 3.9245C18.5933 3.8387 18.5097 3.7529 18.4234 3.6707C18.3514 3.6019 18.2775 3.5357 18.2034 3.4694C18.1162 3.391 18.0286 3.3131 17.939 3.238C17.8626 3.1739 17.7848 3.1117 17.7067 3.0498C17.6159 2.9779 17.5245 2.9069 17.4316 2.838C17.3511 2.778 17.2698 2.71943 17.1877 2.6623C17.0939 2.5965 16.9992 2.5319 16.9037 2.4685C16.8194 2.41283 16.7345 2.3581 16.6488 2.3043C16.5526 2.2443 16.4556 2.18523 16.3577 2.1271C16.2698 2.075 16.1817 2.0235 16.0926 1.9733C15.9944 1.918 15.8953 1.8642 15.7958 1.8111C15.7047 1.7625 15.6137 1.714 15.5217 1.6671C15.4223 1.6165 15.3217 1.5671 15.2217 1.5187C15.127 1.4727 15.0325 1.4267 14.9369 1.3823C14.8385 1.3366 14.7394 1.2923 14.6401 1.2485C14.5408 1.2047 14.4417 1.1598 14.3416 1.1171C14.2462 1.0764 14.1501 1.0371 14.0541 0.9978C13.9487 0.9545 13.8435 0.9108 13.7376 0.8688C13.651 0.8346 13.564 0.8018 13.4776 0.7688C13.3606 0.7239 13.2438 0.6788 13.1264 0.6349L13.1035 0.6258L13.3107 0.6153C13.8547 0.5877 14.4171 0.5591 14.9686 0.5589C21.6486 0.557433 28.3269 0.5613 35.0034 0.5705C51.1907 0.5857 67.9295 0.6021 84.3923 0.5H84.4628C86.0207 0.509452 87.561 0.830047 88.9933 1.44296C90.4256 2.05588 91.721 2.94877 92.8034 4.0692C95.0988 6.35513 96.3961 9.45672 96.4118 12.6962C96.2618 30.5534 96.2986 48.7109 96.3337 66.2706C96.3471 72.8915 96.3572 79.5125 96.3642 86.1334C96.0703 86.1382 95.7765 86.1437 95.4829 86.15C94.7939 86.1639 94.0814 86.1783 93.381 86.1786C77.3156 86.1836 61.2502 86.1869 45.1849 86.1886L38.758 86.1897C38.6652 86.1849 38.5721 86.1824 38.4791 86.1797C38.2819 86.1781 38.0849 86.1655 37.8891 86.1421C36.2625 85.8507 34.5874 86.0047 33.0412 86.5876C31.4949 87.1706 30.1351 88.1608 29.1057 89.4535C29.0632 89.5083 29.0215 89.5635 28.9801 89.6199C28.7603 89.9196 28.5586 90.2322 28.376 90.5559C28.1891 90.8794 28.0207 91.2133 27.8716 91.5559C26.9931 93.4863 26.788 95.6558 27.2892 97.7167C27.7905 99.7776 28.969 101.61 30.636 102.922L30.9248 103.192L30.9523 103.217L30.9532 103.218L30.9248 103.192L31.6494 103.399L31.1232 103.389C32.1658 104.379 33.5204 104.976 34.9548 105.077C35.3281 105.118 35.7038 105.149 36.0805 105.173C36.2161 105.182 36.352 105.185 36.4878 105.192C36.7298 105.204 36.9717 105.218 37.2138 105.226L37.2593 105.227C37.998 105.25 38.7352 105.255 39.4601 105.259C39.5274 105.259 39.5946 105.261 39.6619 105.261C40.1527 105.265 40.6432 105.27 41.1334 105.279L41.1311 105.282C41.0455 105.373 40.9524 105.457 40.8529 105.533C40.8362 105.546 40.8201 105.56 40.8029 105.572C40.7058 105.644 40.6048 105.709 40.5003 105.769L40.4352 105.806C40.329 105.865 40.2198 105.921 40.1077 105.974L40.0377 106.007C39.9288 106.057 39.8186 106.107 39.7065 106.157L39.6917 106.163C39.5617 106.221 39.4317 106.28 39.3017 106.341C39.2472 106.366 39.1925 106.392 39.1386 106.418C39.1038 106.436 39.0701 106.455 39.0356 106.473C38.9799 106.502 38.9239 106.531 38.8695 106.563C38.8332 106.583 38.7987 106.607 38.7631 106.629C38.7123 106.661 38.6609 106.691 38.6118 106.726C38.5762 106.75 38.5429 106.778 38.5083 106.805C38.4618 106.84 38.4147 106.875 38.3703 106.913C38.3363 106.943 38.3051 106.976 38.2725 107.008C38.231 107.048 38.1888 107.087 38.1498 107.131C38.1183 107.166 38.0898 107.206 38.0598 107.244C38.0253 107.289 37.9887 107.334 37.9556 107.384Z" fill="#E5D1B8"/>
<path d="M37.8036 108.145H33.2041C32.5274 108.118 31.8569 108.005 31.2092 107.807L31.0299 107.76C25.0555 106.315 21.3733 101.337 21.4278 94.7705C21.5739 77.1318 21.5501 59.1951 21.527 41.849C21.5181 35.2189 21.5123 28.6076 21.5095 22.015L21.5085 18.9826C21.5094 16.6479 21.5103 14.2802 21.4815 11.9518C21.5351 10.5546 21.2425 9.1659 20.6296 7.9092C20.5272 7.72136 20.4143 7.53944 20.2914 7.3643L20.2352 7.2593C20.1494 7.0399 20.0575 6.82807 19.9596 6.6238L19.8544 6.4219C19.7757 6.2671 19.7128 6.1429 19.6451 6.0248L19.5071 5.8014C19.4191 5.6578 19.3601 5.5614 19.2976 5.4688L19.1119 5.2119C19.0486 5.1245 18.9856 5.0371 18.9194 4.9535L18.7903 4.7975C18.6562 4.639 18.5856 4.5552 18.5123 4.475L18.3537 4.309C18.239 4.1912 18.1598 4.1099 18.078 4.0319L17.8754 3.8462C17.7863 3.7662 17.703 3.692 17.6178 3.6206L17.3964 3.4413C17.3096 3.3726 17.2223 3.3047 17.1337 3.2389L15.2947 2.112L12.9519 1.1028L10.6719 0.2577L13.2851 0.1154C14.4951 0.0539 15.7429 0.0582 16.9696 0.0582C22.9816 0.0582 28.992 0.0621333 35.0009 0.07H35.3328C51.4128 0.0851 68.0394 0.1006 84.3888 0C86.0249 0.00177683 87.644 0.331662 89.1504 0.970142C90.6567 1.60862 92.0197 2.54273 93.1588 3.7172C95.5476 6.09799 96.8968 9.32753 96.9118 12.7001C96.7624 30.5432 96.7986 48.688 96.8336 66.2353C96.847 72.8904 96.8602 79.5118 96.8642 86.1328V86.6249L95.4962 86.6496C94.782 86.6639 94.0755 86.678 93.381 86.6783L38.7577 86.6895L38.48 86.6795C38.2594 86.6775 38.039 86.6632 37.82 86.6369C36.2805 86.3587 34.6945 86.5021 33.2299 87.0518C31.7652 87.6015 30.4765 88.5371 29.5003 89.7595L29.3817 89.9168C29.1737 90.2005 28.9828 90.4964 28.8101 90.8028C28.6324 91.1098 28.4724 91.4268 28.3308 91.752C27.4969 93.5836 27.3023 95.6422 27.778 97.5976C28.2537 99.5531 29.3723 101.292 30.9544 102.536L31.177 102.743L35.4804 103.971L32.6911 103.917C33.4161 104.279 34.2019 104.503 35.0086 104.579C35.3745 104.619 35.7426 104.649 36.1118 104.673L36.6618 104.699C36.8508 104.709 37.0398 104.719 37.2289 104.725C38.0084 104.748 38.7415 104.754 39.4624 104.758L39.5684 104.759C40.1574 104.763 40.6502 104.768 41.1426 104.778L42.2541 104.801L41.4976 105.62C41.3934 105.731 41.2801 105.834 41.1591 105.927C41.0288 106.027 40.8922 106.119 40.75 106.201C40.5617 106.306 40.4433 106.367 40.3213 106.425L39.3622 106.864L39.0356 106.472L39.2681 106.914L39.1191 106.994L38.7631 106.628L39.0263 107.053L38.8969 107.135L38.5083 106.803L38.8108 107.201L38.6979 107.289L38.2725 107.006L38.6202 107.365L38.5231 107.462L38.0603 107.242L38.4539 107.551L38.1294 108.063L37.8036 108.145ZM21.1447 6.8395C21.2756 7.02976 21.3965 7.2267 21.507 7.4295C22.202 8.82834 22.5369 10.3785 22.4815 11.9395C22.5102 14.2722 22.5094 16.6443 22.5085 18.9395L22.5096 22.0145C22.5096 28.6171 22.5154 35.2189 22.527 41.8199C22.5501 59.1966 22.5739 77.1357 22.4277 94.7793C22.3777 100.856 25.7665 105.459 31.2726 106.791L31.4593 106.84C32.0259 107.014 32.612 107.117 33.2041 107.146H37.5141L37.5382 107.108C37.5734 107.055 37.6114 107.006 37.6498 106.957C37.7176 106.869 37.7464 106.832 37.7769 106.797C37.8175 106.752 37.8605 106.71 37.9038 106.668L38.0428 106.535C38.0879 106.496 38.135 106.46 38.1828 106.424L39.0581 105.903C39.1737 105.848 39.2742 105.803 39.3701 105.759C38.6161 105.754 37.9301 105.748 37.2438 105.727C37.0019 105.719 36.8061 105.709 36.6103 105.699L36.0485 105.672C35.6642 105.648 35.281 105.616 34.9002 105.574C33.3522 105.462 31.8916 104.814 30.7692 103.742L30.2869 103.281C29.9457 102.999 29.6213 102.697 29.3153 102.376L29.0896 102.166L29.1296 102.178C27.8089 100.745 26.9413 98.9531 26.6356 97.0284C26.3298 95.1037 26.5997 93.1315 27.4113 91.3597C27.5679 91 27.7449 90.6494 27.9413 90.3097C28.1335 89.9686 28.3461 89.6394 28.5779 89.3238L28.7104 89.1483C29.7927 87.7849 31.2238 86.7397 32.8519 86.1236C34.48 85.5074 36.2444 85.3432 37.9583 85.6483C38.134 85.669 38.3107 85.6799 38.4877 85.681L38.7836 85.691L93.3803 85.6784C94.0682 85.6784 94.768 85.6641 95.4455 85.6505L95.8632 85.6426C95.859 79.1857 95.849 72.7287 95.8332 66.2714C95.7981 48.6875 95.7619 30.5401 95.9113 12.6914C95.8948 9.58502 94.6495 6.61142 92.4475 4.4203C91.4112 3.34726 90.1711 2.49194 88.7999 1.90453C87.4287 1.31711 85.9541 1.00942 84.4624 0.9995C68.0424 1.1006 51.4132 1.0851 35.3319 1.07H35.0026C28.4735 1.06333 21.9457 1.05943 15.4191 1.0583L17.1791 2.0508C17.2787 2.11647 17.3773 2.18373 17.4749 2.2526L17.7292 2.4358C17.8264 2.5079 17.922 2.5821 18.0169 2.6573L18.2601 2.8543C18.354 2.933 18.4459 3.0143 18.5374 3.0968L18.7681 3.3083C18.8588 3.3948 18.9468 3.4849 19.0346 3.5752L19.2501 3.8002C19.3324 3.8902 19.4116 3.9839 19.4908 4.0777L19.7038 4.3327C19.7786 4.4274 19.8504 4.5263 19.922 4.6253L19.595 5.0253L19.9975 4.7287L20.1255 4.9075C20.1965 5.0124 20.2638 5.122 20.331 5.2317L19.9851 5.6224L20.4078 5.3554L20.5126 5.527C20.5885 5.6595 20.6594 5.7984 20.7301 5.937L20.3451 6.28L20.7859 6.0439L20.8621 6.1921C20.9618 6.40117 21.056 6.61697 21.1447 6.8395Z" fill="#2B2129"/>
<path d="M40.3614 97.7192C40.4127 97.357 40.443 96.9921 40.452 96.6264C40.5247 96.0774 40.4744 95.5191 40.3047 94.992C40.1349 94.4648 39.85 93.9821 39.4706 93.5787C39.3929 93.4687 39.3148 93.3568 39.238 93.2443C39.2167 93.2131 39.1968 93.1812 39.1758 93.1498C39.1201 93.0664 39.065 92.9826 39.0125 92.8977C38.9864 92.8555 38.9625 92.8123 38.938 92.7696C38.8937 92.6939 38.8504 92.6178 38.8105 92.5405C38.7857 92.4922 38.764 92.4429 38.7412 92.394C38.7184 92.3451 38.6986 92.2962 38.6785 92.247L38.7121 92.2465L44.3247 92.1543C44.3893 92.261 44.4435 92.3707 44.5033 92.4789C44.5853 92.6271 44.6719 92.7741 44.7449 92.9248C44.8059 93.0507 44.8549 93.1796 44.9094 93.3071C44.9712 93.4509 45.0384 93.5934 45.0924 93.7389C45.1454 93.8821 45.1855 94.028 45.231 94.1727C45.2727 94.3054 45.321 94.4369 45.356 94.5707C45.401 94.7407 45.4321 94.9126 45.4669 95.0841C45.4894 95.1947 45.5188 95.3041 45.5369 95.4155C45.5725 95.6321 45.5936 95.8501 45.6134 96.0682C45.6196 96.1352 45.6317 96.2017 45.6363 96.2688C45.7051 97.6222 45.5054 98.9758 45.0487 100.252C44.5919 101.528 43.8872 102.7 42.9751 103.703C42.8938 103.795 42.8031 103.884 42.7183 103.975C42.5864 104.117 42.4574 104.26 42.3169 104.398C42.0863 104.623 41.8444 104.842 41.5913 105.054C40.9651 105.039 40.3376 105.036 39.71 105.032C38.9831 105.027 38.2439 105.022 37.5039 105L37.4477 104.999C37.2668 104.993 37.0863 104.982 36.9054 104.974C36.3279 104.948 35.7511 104.913 35.1812 104.851C35.0053 104.832 34.8337 104.807 34.6656 104.779C34.6105 104.769 34.5579 104.757 34.5036 104.747C34.3922 104.725 34.2809 104.704 34.1731 104.678C34.1109 104.663 34.0512 104.646 33.9902 104.629C33.8938 104.604 33.7974 104.578 33.704 104.549C33.6413 104.529 33.5808 104.507 33.5194 104.486C33.4316 104.456 33.3442 104.425 33.2594 104.391C33.1982 104.367 33.1388 104.341 33.0794 104.314C32.998 104.279 32.9173 104.243 32.8387 104.204C32.7805 104.176 32.7236 104.146 32.6669 104.116C32.5907 104.075 32.5155 104.033 32.442 103.989C32.3873 103.957 32.3335 103.923 32.2804 103.889C32.2088 103.843 32.1388 103.795 32.0704 103.746C32.0196 103.71 31.9692 103.673 31.9204 103.635C31.874 103.599 31.8296 103.561 31.7846 103.523L31.6504 103.399C31.9027 103.395 32.155 103.395 32.4071 103.395C33.7762 103.482 35.149 103.296 36.4461 102.849C36.8004 102.704 37.1423 102.53 37.4684 102.329C38.2704 101.832 38.948 101.158 39.4495 100.359C39.9509 99.5605 40.2629 98.6573 40.3614 97.7192Z" fill="#BB9168"/>
<path d="M41.7669 105.557L41.5788 105.553C40.9682 105.538 40.3563 105.535 39.7444 105.531C38.9753 105.526 38.2321 105.521 37.488 105.499L36.8823 105.472C36.2941 105.446 35.7068 105.41 35.1266 105.347C34.9404 105.327 34.7588 105.301 34.5809 105.271L34.4644 105.248C34.2899 105.214 34.1713 105.191 34.0564 105.163L33.9181 105.127C33.7549 105.083 33.6528 105.056 33.5538 105.025L33.4016 104.973C33.2603 104.924 33.1659 104.891 33.0742 104.855L32.9042 104.783C32.7903 104.733 32.7027 104.694 32.6173 104.652L32.4303 104.556C32.347 104.511 32.265 104.466 32.1847 104.418L32.0079 104.308C31.9295 104.257 31.8529 104.205 31.7779 104.151L31.3088 103.764L30.3926 102.916L31.6412 102.898C31.8958 102.894 32.1505 102.893 32.4049 102.893C33.7091 102.977 35.017 102.804 36.2549 102.385C36.5841 102.25 36.9018 102.088 37.2049 101.901C37.9451 101.444 38.5701 100.822 39.0315 100.085C39.493 99.347 39.7784 98.513 39.8658 97.6473C39.9144 97.3043 39.9431 96.9581 39.9516 96.6117C40.0178 96.1165 39.9722 95.6127 39.8182 95.1374C39.6642 94.662 39.4056 94.2273 39.0616 93.8649L38.7596 93.4264C38.7005 93.3381 38.6422 93.2493 38.5866 93.1593L38.5294 93.0618C38.457 92.9374 38.4094 92.8535 38.3655 92.7683L37.9418 91.7683L38.6697 91.7459L44.6032 91.6484L44.7519 91.8943C44.7988 91.9717 44.841 92.0505 44.883 92.1295L45.0019 92.3459C45.0688 92.465 45.1355 92.5843 45.1943 92.7059C45.2396 92.7994 45.279 92.8942 45.3182 92.9891L45.4207 93.2291C45.4698 93.3403 45.5187 93.4517 45.5607 93.5646C45.6017 93.6755 45.6359 93.7875 45.6699 93.8996L45.7479 94.1466C45.7804 94.2447 45.8126 94.3429 45.8389 94.4422C45.877 94.5862 45.9061 94.7313 45.9349 94.8766L45.9818 95.0994C45.9996 95.1773 46.017 95.2552 46.03 95.3337C46.0676 95.5624 46.09 95.7924 46.1111 96.0225L46.1348 96.2338C46.2092 97.653 46.0016 99.0728 45.5238 100.411C45.0461 101.75 44.3077 102.98 43.3514 104.031C43.2954 104.095 43.2363 104.156 43.1769 104.218L43.0069 104.398C42.896 104.518 42.7849 104.638 42.6663 104.754C42.4259 104.989 42.1743 105.217 41.9115 105.437L41.7669 105.557ZM33.3511 103.886L33.4427 103.925C33.5208 103.956 33.6014 103.984 33.6822 104.012L33.8522 104.07C33.9377 104.097 34.026 104.12 34.1143 104.144L34.2878 104.19C34.3885 104.215 34.4926 104.234 34.5966 104.254L34.6644 104.778L34.7484 104.285C34.9067 104.312 35.0684 104.335 35.2339 104.353C35.7934 104.413 36.3597 104.448 36.9267 104.473L37.4622 104.497C38.2538 104.521 38.9889 104.526 39.7122 104.53C40.3006 104.534 40.8581 104.537 41.4115 104.548C41.6037 104.382 41.7888 104.212 41.9668 104.038C42.0726 103.935 42.1721 103.827 42.2717 103.718L42.4578 103.521C42.5056 103.471 42.5535 103.422 42.5978 103.371C43.4671 102.419 44.139 101.303 44.5747 100.09C45.0104 98.8764 45.2013 97.5886 45.1363 96.3008L45.1143 96.1115C45.0956 95.9051 45.076 95.699 45.0423 95.4944C45.0323 95.4361 45.0192 95.3781 45.006 95.3201L44.9531 95.0695C44.9284 94.9447 44.904 94.8195 44.8713 94.6963C44.8502 94.6163 44.8238 94.538 44.7977 94.4591L44.7118 94.1875C44.6838 94.0948 44.656 94.0019 44.6218 93.9103C44.587 93.8165 44.5458 93.7241 44.5049 93.6316L44.3926 93.3692C44.361 93.2926 44.3297 93.2159 44.2932 93.1405C44.2432 93.0374 44.1861 92.9364 44.1291 92.8351L44.0307 92.657L39.4996 92.7323C39.5296 92.7786 39.5596 92.8246 39.5907 92.8705L39.2373 93.243L39.6503 92.9612L39.8787 93.2895C40.3006 93.7474 40.6149 94.2938 40.7986 94.8887C40.9824 95.4836 41.0309 96.1121 40.9406 96.7281C40.9362 97.0832 40.9078 97.4376 40.8556 97.7889C40.7442 98.7991 40.4049 99.7709 39.8632 100.631C39.3215 101.491 38.5916 102.216 37.7286 102.753C37.3794 102.968 37.0133 103.155 36.634 103.311C35.5853 103.706 34.4717 103.901 33.3511 103.886ZM39.1602 92.7379L39.0115 92.8964L39.2708 92.7364L39.1602 92.7379Z" fill="#2B2129"/>
<path d="M40.2426 96.5053L38.6408 96.4998C37.0602 96.4947 35.4798 96.4875 33.8994 96.478L33.7586 96.4774C32.9931 96.4752 32.27 96.4732 32.0137 95.5794C31.9095 95.2036 31.9122 94.8061 32.0216 94.4318C32.1311 94.0575 32.3429 93.7211 32.6331 93.4607C32.7502 93.3361 32.8695 93.2234 32.99 93.1165C33.0278 93.083 33.0661 93.0522 33.1042 93.0203C33.1904 92.9484 33.2775 92.8806 33.3654 92.8168C33.4072 92.7868 33.4488 92.7563 33.491 92.7279C33.5899 92.6614 33.69 92.6005 33.791 92.5437C33.819 92.528 33.8464 92.5098 33.8746 92.4948C33.9997 92.4283 34.127 92.37 34.2558 92.3171C34.3028 92.2978 34.3508 92.2817 34.3984 92.2642C34.4851 92.2321 34.5724 92.2023 34.6608 92.1759C34.7164 92.1593 34.7724 92.1435 34.8288 92.129C34.9161 92.1066 35.0045 92.0876 35.0935 92.0702C35.1463 92.0602 35.1984 92.0477 35.2517 92.0391C35.3843 92.0176 35.5188 92.0009 35.655 91.9891C35.7126 91.9842 35.7715 91.9826 35.8297 91.9791C35.9197 91.9741 36.0109 91.9699 36.1029 91.9691C36.1664 91.9683 36.2306 91.9691 36.2949 91.9696C36.3991 91.9711 36.5045 91.9748 36.6109 91.9808C36.6626 91.9837 36.7138 91.9854 36.766 91.9892C36.9273 92.0011 37.0906 92.0166 37.2569 92.0372L37.3116 92.0447C37.4801 92.0664 37.651 92.0918 37.8244 92.1209L37.8518 92.1256C38.04 92.1578 38.2312 92.1939 38.4253 92.2338C38.452 92.3053 38.4867 92.3738 38.518 92.443C38.542 92.4963 38.5627 92.551 38.589 92.603C38.6306 92.6857 38.6774 92.7658 38.7237 92.8462C38.7501 92.8921 38.7737 92.9391 38.8016 92.9844C38.8558 93.0731 38.9133 93.1596 38.9708 93.2461C38.9941 93.2813 39.016 93.3172 39.0397 93.352C39.1211 93.472 39.2041 93.59 39.2865 93.7072C39.3624 93.815 39.4377 93.922 39.5111 94.0291C39.5271 94.0525 39.5411 94.076 39.5574 94.0991C39.6148 94.1841 39.6719 94.2691 39.7256 94.3547C39.7399 94.3776 39.7522 94.4009 39.7663 94.4239C39.8194 94.511 39.8718 94.5983 39.9192 94.6872C39.9292 94.7065 39.9376 94.7265 39.9476 94.7459C39.9957 94.8394 40.0418 94.9334 40.0815 95.0299C40.0888 95.0477 40.0938 95.0663 40.1008 95.0842C40.1402 95.1828 40.1741 95.2835 40.2023 95.3858C40.208 95.4069 40.2107 95.4291 40.2159 95.4503C40.2413 95.5515 40.2603 95.6541 40.2729 95.7577C40.2765 95.79 40.2759 95.8241 40.2783 95.8569C40.2864 95.9529 40.2888 96.0492 40.2857 96.1455C40.2831 96.2042 40.2736 96.2655 40.2667 96.3255C40.2608 96.3852 40.2532 96.4445 40.2426 96.5053Z" fill="#2B2129"/>
<path d="M40.6611 97.0062L38.6374 96.9992C37.0562 96.9941 35.4751 96.9868 33.8941 96.9774L33.7546 96.9768C32.9686 96.9745 31.8912 96.9714 31.5314 95.7168C31.4029 95.2578 31.4036 94.7724 31.5334 94.3138C31.6632 93.8553 31.917 93.4415 32.2669 93.118C32.3948 92.9818 32.5249 92.8587 32.6569 92.7419L32.754 92.6596C32.8778 92.5565 32.974 92.4813 33.0713 92.4111L33.2113 92.3124C33.3213 92.2384 33.4329 92.1704 33.5458 92.1071L33.6394 92.0527C33.778 91.9794 33.9202 91.9131 34.0654 91.854L34.1854 91.8089C34.3217 91.7589 34.4191 91.7257 34.5176 91.6963L34.7045 91.6441C34.8008 91.6194 34.8987 91.5983 34.9972 91.579L35.1715 91.545C35.3165 91.5215 35.4635 91.5034 35.6124 91.4907L35.7486 91.4825C35.8992 91.4745 35.9971 91.47 36.0964 91.4688L36.3017 91.4693C36.413 91.4709 36.5252 91.4748 36.6384 91.4812L36.8019 91.4901C36.9719 91.5027 37.1435 91.519 37.3181 91.5401C37.5502 91.5701 37.7274 91.5965 37.9081 91.6271C38.1299 91.6649 38.3263 91.7021 38.5261 91.7432L38.7969 91.7988L39.0043 92.3066C39.0691 92.4438 39.1063 92.5079 39.1433 92.572L39.1933 92.6613C39.2788 92.8059 39.3325 92.8866 39.3862 92.9674L39.0396 93.3514L39.4531 93.0704L39.9231 93.746C40.0319 93.9085 40.092 93.9983 40.1487 94.0888C40.2508 94.2588 40.308 94.3542 40.3599 94.4515C40.4464 94.623 40.4985 94.73 40.5435 94.8396C40.5978 94.9758 40.645 95.1147 40.6848 95.2559C40.7216 95.4022 40.7498 95.5506 40.7691 95.7003L40.7764 95.8203C40.7859 95.9352 40.7887 96.0507 40.7847 96.166C40.7822 96.2237 40.7755 96.2816 40.7683 96.3394C40.7557 96.4494 40.747 96.5194 40.7345 96.5909L40.6611 97.0062ZM40.2423 96.1436V96.1556L40.2843 96.1456L40.2423 96.1436ZM32.9883 93.1156L33.3201 93.4897C33.2107 93.5868 33.1022 93.689 32.9959 93.8022C32.7665 94.0004 32.5977 94.2593 32.5086 94.5491C32.4196 94.8389 32.4141 95.1479 32.4926 95.4408C32.6274 95.9108 32.8691 95.974 33.7581 95.9766L33.9001 95.9771C35.4811 95.9887 37.0613 95.996 38.6407 95.999L39.7846 96.003C39.7833 95.9664 39.781 95.9301 39.7783 95.8941C39.7713 95.784 39.7545 95.6748 39.7283 95.5678C39.7042 95.4649 39.6724 95.364 39.6333 95.2659C39.595 95.1662 39.5509 95.0689 39.5013 94.9743C39.4334 94.8418 39.3858 94.7629 39.3377 94.6844L38.5516 93.5213C38.4909 93.4299 38.4304 93.3385 38.3732 93.2449L38.3147 93.1424C38.2286 92.9914 38.1823 92.9106 38.1406 92.8276L38.0816 92.6976L38.104 92.6802C37.9901 92.6582 37.8774 92.6377 37.7658 92.6186C37.5723 92.5858 37.4082 92.5617 37.2458 92.5408C37.0358 92.5141 36.8804 92.4993 36.7272 92.4881L36.5817 92.4803C36.4817 92.4747 36.383 92.4713 36.2855 92.4703L36.1077 92.4697C36.0225 92.4708 35.9388 92.4748 35.8555 92.4798L35.6955 92.4886C35.5719 92.499 35.45 92.514 35.3298 92.5336L35.1875 92.5619C35.1082 92.5774 35.0292 92.5942 34.9512 92.6143L34.8012 92.6562C34.7234 92.6794 34.6461 92.7062 34.5693 92.7342L34.2536 92.3181L34.4436 92.7807C34.3301 92.8273 34.2178 92.8786 34.1075 92.9373C33.944 93.0311 33.8553 93.085 33.7675 93.1439L33.6701 93.2127C33.577 93.28 33.4992 93.3408 33.4221 93.4052L32.9883 93.1156ZM38.3836 92.4291L38.3756 92.4678L38.488 92.3803L38.3836 92.4291Z" fill="#2B2129"/>
<path d="M38.5186 92.0231C36.4109 91.5843 34.2209 91.439 32.4677 93.306C32.1492 93.5938 31.9175 93.9649 31.7988 94.3775C31.6801 94.79 31.6791 95.2275 31.796 95.6405C32.0989 96.6966 32.9795 96.6992 33.756 96.7014L33.896 96.7021C35.434 96.7133 36.972 96.7205 38.51 96.7236L40.22 96.7297C40.2173 96.8017 40.2128 96.8724 40.2085 96.9434C40.2032 97.0315 40.1985 97.1204 40.1913 97.2069C40.1834 97.2957 40.1722 97.3822 40.1618 97.4692C40.1518 97.5537 40.1429 97.6392 40.1305 97.7216C40.1178 97.8071 40.1016 97.8901 40.0863 97.9738C40.0716 98.0548 40.0581 98.1366 40.0411 98.216C40.0234 98.2983 40.0022 98.378 39.982 98.4585C39.9627 98.5357 39.9447 98.6139 39.9231 98.6895C39.9005 98.7687 39.8742 98.8452 39.8491 98.9226C39.8253 98.9959 39.8029 99.0703 39.7768 99.142C39.7493 99.2178 39.7181 99.2907 39.6881 99.3646C39.6598 99.4346 39.6329 99.5053 39.6024 99.5733C39.5701 99.6453 39.5341 99.7142 39.4994 99.7842C39.4665 99.8507 39.4351 99.9184 39.4 99.9831C39.3629 100.051 39.3221 100.116 39.2827 100.183C39.2453 100.246 39.2095 100.31 39.17 100.371C39.128 100.436 39.0821 100.497 39.0377 100.56C38.9961 100.619 38.9562 100.679 38.9125 100.736C38.8654 100.798 38.8143 100.856 38.7648 100.915C38.7192 100.97 38.6754 101.026 38.6278 101.079C38.5753 101.137 38.5188 101.192 38.4639 101.248C38.4146 101.298 38.3673 101.35 38.316 101.398C38.2582 101.453 38.196 101.504 38.136 101.556C38.0831 101.602 38.0322 101.65 37.9773 101.695C37.9132 101.746 37.8448 101.795 37.7781 101.844C37.7227 101.885 37.6694 101.928 37.6122 101.967C37.5385 102.018 37.4604 102.064 37.3837 102.112C37.3291 102.147 37.2767 102.182 37.2206 102.216C37.1355 102.266 37.0457 102.311 36.9571 102.357C36.9051 102.385 36.8555 102.414 36.8023 102.44C36.6587 102.511 36.5108 102.578 36.3587 102.64C35.0883 103.075 33.7446 103.254 32.4047 103.169C32.0733 103.169 31.7416 103.17 31.4101 103.178L31.283 103.06L31.4111 103.179L30.9503 102.752L30.9453 102.747C29.3026 101.473 28.1388 99.6813 27.643 97.6626C27.1471 95.6439 27.3484 93.5169 28.214 91.6269C28.3129 91.3978 28.4204 91.1769 28.534 90.9604C28.5707 90.8904 28.6114 90.8241 28.6496 90.7554C28.7296 90.6122 28.8103 90.4698 28.8964 90.3327C28.9451 90.2551 28.997 90.1807 29.0477 90.1051C29.1299 89.9825 29.2134 89.8612 29.3007 89.744C29.3569 89.6685 29.4149 89.5952 29.4731 89.522C29.5621 89.4102 29.6533 89.3008 29.7468 89.1939C29.8076 89.1247 29.8692 89.0564 29.9318 88.989C30.0306 88.8836 30.1324 88.7818 30.2357 88.682C30.2984 88.622 30.3606 88.5603 30.4249 88.502C30.5392 88.3983 30.6573 88.2997 30.7767 88.2027C30.8348 88.1554 30.8913 88.1061 30.9506 88.0605C31.1031 87.9431 31.2606 87.8323 31.4206 87.7257C31.4506 87.7057 31.4786 87.6836 31.5087 87.6641C31.7037 87.5375 31.9039 87.4191 32.1093 87.3091C32.1444 87.2902 32.1812 87.2744 32.2166 87.256C32.3849 87.1685 32.5556 87.0849 32.7303 87.0083C32.7967 86.9792 32.8651 86.9538 32.9324 86.9262C33.08 86.8662 33.2286 86.8075 33.3803 86.7549C33.4584 86.7278 33.5379 86.7034 33.617 86.6783C33.7623 86.6324 33.9089 86.5891 34.0576 86.5502C34.1418 86.5282 34.2266 86.5076 34.3118 86.4878C34.4608 86.4534 34.6113 86.4225 34.7635 86.3952C34.8496 86.3797 34.9358 86.364 35.0229 86.3507C35.1811 86.3265 35.3414 86.3079 35.5029 86.2914C35.586 86.2829 35.6684 86.2726 35.7523 86.2661C35.9323 86.2522 36.1146 86.2455 36.2978 86.2411C36.3648 86.2395 36.4308 86.2348 36.4983 86.2344C36.6839 86.2335 36.8723 86.242 37.0609 86.2509C37.1365 86.2544 37.2109 86.2537 37.2867 86.2589C37.5513 86.2768 37.8184 86.3036 38.0881 86.341C38.2938 86.3659 38.5008 86.3792 38.7081 86.381C38.77 86.3826 38.8339 86.3851 38.8974 86.3875C38.9031 86.4231 38.915 86.4527 38.9229 86.4862C38.9324 86.5262 38.941 86.5675 38.9535 86.6049C38.9689 86.649 38.9868 86.6921 39.0072 86.7341C39.0228 86.7676 39.0372 86.8022 39.0551 86.8333C39.078 86.8714 39.1031 86.9081 39.1302 86.9433C39.1502 86.9709 39.1693 86.9999 39.1914 87.0255C39.2207 87.0594 39.2531 87.0899 39.2853 87.1206C39.3087 87.143 39.3309 87.1669 39.3553 87.1878C39.3905 87.2178 39.4281 87.244 39.4653 87.2709C39.4904 87.2889 39.5143 87.3083 39.5402 87.3252C39.5811 87.352 39.6237 87.3761 39.6662 87.4004C39.6909 87.4145 39.7146 87.4298 39.7397 87.4433C39.7873 87.4689 39.8356 87.4925 39.884 87.5162C39.905 87.5262 39.9256 87.5376 39.9466 87.5475C40.0153 87.5801 40.084 87.6114 40.1516 87.6421L40.2867 87.704C40.5223 87.8131 40.7486 87.9308 40.9658 88.057C41.0358 88.097 41.0987 88.1439 41.1666 88.186C41.3107 88.276 41.456 88.3641 41.5919 88.4617C41.6631 88.5129 41.7278 88.5704 41.7968 88.6238C41.9217 88.7204 42.048 88.8155 42.1657 88.9196C42.2307 88.9771 42.2896 89.0409 42.3524 89.1006C42.4661 89.2088 42.5809 89.3158 42.6874 89.4316C42.7456 89.4948 42.7982 89.5642 42.8543 89.6297C42.9573 89.7497 43.061 89.8697 43.1569 89.9977C43.2115 90.0706 43.2606 90.1495 43.3129 90.2249C43.4017 90.3529 43.4911 90.4802 43.5729 90.6156C43.629 90.708 43.6796 90.8067 43.7329 90.9025C43.8021 91.0273 43.8723 91.1509 43.9365 91.2816C44.0007 91.4123 44.0574 91.5476 44.1158 91.683C44.1513 91.7648 44.1876 91.8455 44.2214 91.9295L38.5186 92.0231Z" fill="#CBA58C"/>
<path d="M31.2197 103.682L31.0716 103.545L30.6116 103.118C28.888 101.777 27.6682 99.8923 27.1499 97.7706C26.6316 95.6488 26.8452 93.4142 27.7561 91.4291C27.8601 91.1883 27.9731 90.9554 28.0923 90.7284L28.1731 90.5837C28.298 90.3615 28.3831 90.2116 28.474 90.0671L28.594 89.8848C28.7199 89.6975 28.8081 89.5695 28.9003 89.4457L29.0823 89.2113C29.1765 89.0929 29.273 88.9773 29.3717 88.8643L29.5675 88.6477C29.672 88.536 29.7796 88.4283 29.889 88.3227L30.089 88.1321C30.21 88.0221 30.3351 87.9178 30.4615 87.815L30.6458 87.665C30.8073 87.5407 30.9737 87.4233 31.1431 87.3103L31.2365 87.2453C31.4432 87.1115 31.6552 86.9862 31.8724 86.8694L31.9858 86.813C32.1638 86.7205 32.3444 86.6322 32.5293 86.5511L32.6748 86.4911C32.8988 86.4001 33.0559 86.3385 33.2161 86.2829L33.42 86.2165C33.6193 86.1535 33.7739 86.108 33.9307 86.0665L34.1986 86.0007C34.3556 85.9645 34.5142 85.932 34.6743 85.9032L34.9473 85.8564C35.1135 85.831 35.282 85.8114 35.4513 85.794L35.7131 85.7676C35.9018 85.7531 36.0931 85.7459 36.2851 85.7412L36.4951 85.7344C36.6892 85.7335 36.8863 85.7421 37.0836 85.7514L37.3197 85.76C37.5958 85.7788 37.8746 85.8074 38.156 85.8458C38.3419 85.8679 38.5289 85.8796 38.716 85.8808L39.2904 85.9016L39.5297 86.6437L39.7468 86.8577L40.4951 87.2497C40.7465 87.3661 40.9861 87.491 41.2165 87.6246C41.2665 87.6534 41.3136 87.6846 41.3607 87.716L41.2116 88.2142L41.4751 87.7892C41.614 87.8754 41.7527 87.9618 41.8836 88.0558C41.935 88.0927 41.9836 88.1323 42.0324 88.172L41.7967 88.624L42.1553 88.2691C42.2716 88.3591 42.3876 88.4491 42.4969 88.5452C42.5442 88.587 42.589 88.6315 42.6336 88.6761L42.3524 89.1008L42.7377 88.7772C42.846 88.88 42.9539 88.9831 43.0553 89.0932C43.0977 89.1393 43.1379 89.188 43.1779 89.2369L42.8797 89.6595L43.2597 89.3342C43.3614 89.4529 43.4628 89.5718 43.5574 89.6982C43.5974 89.7516 43.6351 89.8076 43.6725 89.8637L43.3132 90.2251L43.7463 89.9721C43.8334 90.0977 43.9202 90.2234 44.001 90.3562C44.044 90.4271 44.0842 90.5011 44.1242 90.5751L43.7333 90.9027L44.1995 90.7127C44.2632 90.8271 44.3267 90.9417 44.3857 91.0617C44.4447 91.1817 44.4991 91.3085 44.5532 91.4343L44.2178 91.6889V91.7127L44.6008 91.5449L44.9562 92.4181L38.4715 92.5248L38.417 92.5134C36.1487 92.0412 34.3309 92.0534 32.8326 93.6491C32.5747 93.8744 32.3856 94.168 32.2873 94.4961C32.189 94.8241 32.1854 95.1733 32.2769 95.5033C32.4575 96.1333 32.8669 96.1997 33.7582 96.2022L33.8988 96.2029C35.4374 96.2141 36.9752 96.2213 38.5121 96.2244L40.7397 96.2324L40.6653 97.4748L40.1553 97.5312L40.652 97.5885L40.5891 98.0085L40.0759 98.0359L40.5682 98.1234L40.4814 98.5262L39.9676 98.5202L40.4532 98.6391L40.3432 99.0228L39.8301 98.9843L40.3066 99.1358L40.174 99.4996L39.6651 99.4242L40.1296 99.6092L39.9741 99.9547L39.4719 99.8424L39.9219 100.061L39.7439 100.388L39.2497 100.24L39.6814 100.492L39.4807 100.8L38.9997 100.615L39.4106 100.9L39.1881 101.189L38.7221 100.968L39.1093 101.284L38.8649 101.554L38.4164 101.297L38.7776 101.643L38.5132 101.892L38.0832 101.604L38.416 101.977L38.292 102.084C38.2392 102.126 38.1839 102.167 38.1286 102.207L37.7209 101.887L38.0241 102.285L37.8961 102.379C37.8339 102.422 37.769 102.462 37.704 102.502L37.324 102.151L37.5964 102.571L37.4738 102.647C37.3987 102.691 37.3205 102.732 37.2422 102.773L36.8963 102.391L37.1379 102.828L37.0237 102.889C36.8704 102.964 36.7122 103.036 36.5492 103.102C34.8919 103.614 33.1529 103.809 31.4233 103.677L31.2197 103.682ZM31.4197 87.7257L31.697 88.1418C31.5464 88.2418 31.3986 88.3463 31.2551 88.4567L31.1594 88.5346C30.9794 88.682 30.868 88.7746 30.7604 88.8723L30.6193 89.0062C30.4852 89.1362 30.3893 89.2316 30.2963 89.3309L30.122 89.5239C30.0338 89.6245 29.9477 89.7277 29.8639 89.8333L29.7013 90.0426C29.6188 90.1534 29.5401 90.268 29.4624 90.3838L29.3193 90.5988C29.2378 90.7288 29.1615 90.8634 29.0859 90.9988L28.9759 91.1925C28.8683 91.3976 28.7659 91.6076 28.6724 91.8249C27.8527 93.6157 27.6625 95.631 28.1327 97.5435C28.6029 99.4561 29.7058 101.153 31.2624 102.36L31.6012 102.673C33.1414 102.794 34.6906 102.625 36.169 102.177C36.3106 102.119 36.4481 102.057 36.5815 101.991L36.7248 101.914C36.8431 101.853 36.9071 101.82 36.9683 101.784L38.6683 100.217L39.4424 98.5524L39.6861 97.228L38.5084 97.2238C36.97 97.2187 35.4313 97.2115 33.8925 97.2022L33.7541 97.2016C32.9454 97.1993 31.722 97.1958 31.3155 95.7785C31.1747 95.2824 31.1738 94.7569 31.3128 94.2602C31.4518 93.7635 31.7254 93.3149 32.1033 92.9639C34.0159 90.9273 36.4387 91.0853 38.5657 91.5225L43.4572 91.442C43.4147 91.3593 43.3698 91.2789 43.325 91.1984L43.2438 91.0504C43.2117 90.9911 43.1799 90.9317 43.1455 90.8751C43.0755 90.7599 42.9996 90.6511 42.924 90.5421L42.7562 90.2974C42.6748 90.1887 42.5871 90.0868 42.4996 89.9847L42.3196 89.7703C42.2334 89.6766 42.1411 89.5895 42.0496 89.5022L41.835 89.2942C41.7424 89.2123 41.6438 89.1368 41.545 89.061L41.3004 88.8679C41.1877 88.7869 41.0678 88.7131 40.9482 88.6389L40.7152 88.4895C40.5108 88.3711 40.298 88.2605 40.0766 88.1577L39.1734 87.6768C39.1196 87.6382 39.075 87.6057 39.0328 87.5701L38.9551 87.4977C38.8907 87.4357 38.8498 87.3957 38.8122 87.352L38.739 87.2567C38.6968 87.201 38.6576 87.143 38.6215 87.083L38.5622 86.9642C38.5473 86.9318 38.534 86.9027 38.5222 86.8752C38.3538 86.8707 38.1857 86.8577 38.0186 86.8361C37.7609 86.8003 37.5054 86.7746 37.2523 86.7575L37.0368 86.7501C36.8568 86.7417 36.6773 86.7336 36.5002 86.7342L36.309 86.7408C36.1349 86.745 35.9613 86.7508 35.7902 86.7645L35.6349 86.7798C35.4004 86.8043 35.2483 86.8218 35.0982 86.8447L34.8646 86.8847C34.7082 86.913 34.5655 86.9419 34.4246 86.9747L34.1841 87.0337C34.0441 87.0705 33.905 87.1114 33.7677 87.1549L33.544 87.227C33.4011 87.277 33.2609 87.3318 33.1217 87.3888L32.9311 87.466C32.7664 87.5382 32.6057 87.617 32.4471 87.6994L32.1092 87.3089L32.3459 87.7489C32.1526 87.8528 31.9642 87.9642 31.7806 88.0831L31.4197 87.7257Z" fill="#2B2129"/>
<path d="M107.876 99.1312C107.113 104.109 102.865 106.508 99.4283 107.645H38.293C38.3042 107.625 38.3144 107.603 38.3261 107.584C38.35 107.545 38.3749 107.506 38.4009 107.47C38.4309 107.427 38.4623 107.385 38.4949 107.346C38.5229 107.312 38.5513 107.278 38.5811 107.247C38.6158 107.209 38.652 107.174 38.689 107.14C38.7203 107.111 38.7515 107.082 38.7843 107.054C38.8235 107.022 38.8643 106.991 38.9055 106.961C38.9392 106.936 38.9724 106.911 39.0073 106.887C39.0512 106.858 39.0966 106.83 39.1421 106.803C39.1769 106.782 39.2111 106.76 39.2468 106.74C39.2968 106.712 39.3478 106.686 39.399 106.66C39.4326 106.643 39.4653 106.625 39.499 106.608C39.5596 106.578 39.6215 106.55 39.6836 106.521C39.7096 106.509 39.7349 106.497 39.7611 106.485C39.8494 106.445 39.9385 106.405 40.0285 106.366C40.1409 106.317 40.2533 106.267 40.3659 106.215C40.8047 106.037 41.2044 105.776 41.5428 105.444C41.6029 105.381 41.6592 105.314 41.7116 105.244C41.9746 105.025 42.2257 104.8 42.4651 104.567L42.4839 104.547C45.8579 101.247 46.8179 96.6361 44.9351 92.7982C44.8022 92.5262 44.6549 92.2583 44.4932 91.9945C43.9278 90.427 42.8818 89.0782 41.5044 88.1405C41.1479 87.8972 40.7725 87.6828 40.3819 87.4993L40.2455 87.4369C40.1789 87.4069 40.1128 87.3769 40.0478 87.3459L40.0044 87.3245C39.9544 87.3006 39.9056 87.2765 39.858 87.2513C39.8364 87.2398 39.8161 87.2273 39.795 87.2155C39.7557 87.1934 39.7165 87.1713 39.6793 87.1476C39.6565 87.1331 39.6355 87.117 39.6137 87.1017C39.5806 87.0787 39.5477 87.0554 39.517 87.0302C39.4952 87.0125 39.4755 86.9929 39.4551 86.9739C39.4275 86.9483 39.4002 86.9222 39.3751 86.8939C39.356 86.8725 39.3391 86.8492 39.3217 86.8262C39.299 86.7967 39.2779 86.766 39.2586 86.7341C39.2433 86.7085 39.2299 86.6809 39.2166 86.6533C39.1996 86.6183 39.1847 86.5823 39.1719 86.5455C39.1613 86.515 39.1519 86.4829 39.1441 86.45C39.1393 86.4309 39.1364 86.41 39.1325 86.39L45.4819 86.3889C61.6962 86.3865 77.9105 86.3832 94.1247 86.3789C94.8337 86.3789 95.554 86.3642 96.2507 86.3503C96.5827 86.3437 96.9148 86.3376 97.247 86.332C103.001 86.5795 106.962 89.742 107.842 94.7929C108.093 96.2273 108.104 97.6931 107.876 99.1312Z" fill="#D7AF94"/>
<path d="M99.5075 108.146H37.4375L37.8554 107.402C37.8966 107.327 37.9416 107.254 37.9902 107.184C38.0276 107.13 38.0666 107.079 38.1073 107.029C38.1421 106.987 38.1773 106.946 38.2144 106.906C38.2573 106.861 38.3018 106.817 38.3473 106.775L38.463 106.671C38.51 106.632 38.5587 106.595 38.608 106.559L39.4735 106.068L40.156 105.762C40.5349 105.61 40.8811 105.387 41.176 105.105C41.2238 105.054 41.2686 105.001 41.3102 104.946L41.3902 104.862C41.6431 104.651 41.8846 104.434 42.1147 104.21C45.3479 101.046 46.271 96.6616 44.4847 93.0202C44.358 92.7615 44.2182 92.5072 44.0652 92.2573C43.7339 91.3175 43.2188 90.4531 42.55 89.7145C41.8812 88.9758 41.0721 88.3777 40.1698 87.9549L39.3252 87.5134C39.2822 87.4834 39.2391 87.4523 39.1986 87.4192L39.1129 87.3422C39.0739 87.306 39.0355 87.2685 38.9999 87.2285L38.9283 87.1395C38.892 87.0924 38.8583 87.0433 38.8274 86.9924L38.7641 86.8718C38.739 86.8197 38.7169 86.7663 38.6978 86.7118L38.6573 86.5738L38.5408 85.978L39.1308 85.892L94.1233 85.8809C94.8197 85.8809 95.5269 85.8666 96.2118 85.853L97.2379 85.834C103.273 86.0928 107.41 89.4104 108.334 94.709C108.593 96.1966 108.605 97.7168 108.369 99.2083C107.568 104.438 103.149 106.942 99.584 108.121L99.5075 108.146ZM39.5497 107.146H99.3459C102.632 106.045 106.661 103.75 107.381 99.0565C107.6 97.6722 107.589 96.2611 107.349 94.8804C106.512 90.0782 102.727 87.0704 97.2243 86.8332L96.2821 86.8515C95.5404 86.8662 94.8265 86.8804 94.1236 86.8806L40.2542 86.8914L40.5886 87.0461C41.0043 87.2408 41.4037 87.4686 41.783 87.7272C43.2457 88.7229 44.3573 90.1544 44.9596 91.8182C45.1162 92.0633 45.2578 92.3177 45.3834 92.5801C47.3634 96.6152 46.3619 101.453 42.8326 104.905C42.5789 105.154 42.3312 105.378 42.0736 105.594C42.0198 105.662 41.9635 105.728 41.9047 105.79C41.5224 106.167 41.0702 106.466 40.5735 106.671L39.7182 107.058L39.3982 106.661L39.6266 107.106L39.5497 107.146ZM39.3469 107.146H39.4605L39.1405 106.804L39.3469 107.146ZM39.0393 107.146H39.1093L38.9047 106.962L39.0393 107.146Z" fill="#2B2129"/>
<path d="M88.4853 50.3577C87.8586 50.6716 87.1551 50.7994 86.4581 50.7259C80.1881 50.6807 73.8123 50.6877 67.6463 50.6948C65.3393 50.6974 63.0322 50.6991 60.725 50.7C58.4317 50.6985 56.137 50.6966 53.8409 50.6942C52.333 50.6922 50.8138 50.6905 49.2834 50.6891C44.6972 50.6858 40.0393 50.6906 35.4396 50.7276C34.7069 50.806 33.9671 50.6737 33.307 50.3462C33.0893 50.1714 32.921 49.9429 32.8187 49.6832C32.7163 49.4235 32.6836 49.1415 32.7236 48.8653C32.6931 48.6146 32.7279 48.3603 32.8244 48.1269C32.9209 47.8936 33.076 47.6891 33.2747 47.5332C33.3249 47.4992 33.3774 47.4687 33.4317 47.4418C34.0577 47.2062 34.7275 47.1095 35.3946 47.1584H35.4319C53.5319 47.1993 70.2195 47.1979 86.4496 47.1551C87.1531 47.0853 87.862 47.2155 88.4947 47.5309C88.7013 47.6967 88.8613 47.9134 88.9588 48.1596C89.0564 48.4059 89.0883 48.6734 89.0513 48.9357C89.0885 49.2014 89.0559 49.4723 88.9567 49.7217C88.8575 49.971 88.695 50.1902 88.4853 50.3577Z" fill="#C2956D"/>
<path d="M35.3501 51.2275C34.5468 51.3032 33.739 51.1406 33.0275 50.76C32.7445 50.5373 32.5225 50.2467 32.382 49.9151C32.2415 49.5836 32.1872 49.2219 32.2241 48.8637C32.1918 48.5312 32.2457 48.1961 32.3806 47.8905C32.5154 47.5849 32.7267 47.3192 32.9941 47.1191C33.0628 47.0727 33.1345 47.0309 33.2087 46.994C33.9029 46.7187 34.6502 46.6038 35.3949 46.658C53.4749 46.6988 70.1625 46.698 86.4485 46.6547C87.2531 46.5749 88.0632 46.7359 88.7762 47.1171C89.0224 47.3539 89.218 47.6381 89.3512 47.9525C89.4845 48.267 89.5527 48.6052 89.5516 48.9468C89.5506 49.2883 89.4804 49.6261 89.3452 49.9398C89.2101 50.2534 89.0128 50.5364 88.7652 50.7718C88.0575 51.1495 87.2532 51.3074 86.4552 51.2254C80.1583 51.1799 73.7982 51.1873 67.6475 51.1943L60.7255 51.1998L49.2836 51.1889C44.6987 51.1857 40.0423 51.1904 35.4436 51.2273L35.3501 51.2275ZM35.4313 47.658C34.8298 47.612 34.2252 47.6906 33.6553 47.8888C33.621 47.9058 33.5878 47.9251 33.556 47.9465C33.4023 48.0509 33.226 48.2498 33.2241 48.8665C33.2224 49.588 33.4068 49.8099 33.5873 49.9318C34.1666 50.1929 34.805 50.295 35.4368 50.2276C40.0368 50.1906 44.6968 50.1859 49.2843 50.1891L60.7259 50.1998L67.6459 50.1946C73.7986 50.1875 80.1608 50.1803 86.4619 50.2257C87.0581 50.2892 87.6604 50.1916 88.2059 49.943C88.3764 49.828 88.5509 49.6182 88.5515 48.935C88.5521 48.265 88.3815 48.058 88.2138 47.9442C87.6606 47.6959 87.0521 47.5962 86.4485 47.6549C70.1637 47.6977 53.4753 47.6988 35.4313 47.658Z" fill="#2B2129"/>
<path d="M35.2451 66.9342H35.277C52.4459 66.9821 69.6854 66.9818 86.517 66.9336H86.5506C88.6485 66.9336 89.017 67.5059 89.0458 68.7828C89.0847 69.0375 89.0561 69.2979 88.9629 69.538C88.8697 69.7782 88.7152 69.9898 88.5147 70.1516C87.8561 70.4848 87.114 70.6169 86.3808 70.5316C80.1561 70.4886 73.8272 70.4953 67.7066 70.5016C63.1454 70.5066 58.5842 70.5066 54.0228 70.5016C52.4938 70.4999 50.9536 70.4984 49.402 70.4969C44.752 70.4941 40.0283 70.4987 35.3638 70.5318C34.6438 70.6111 33.9162 70.4805 33.2687 70.1558C33.0643 69.9921 32.9064 69.7775 32.8112 69.5335C32.7159 69.2895 32.6866 69.0247 32.726 68.7658C32.7433 67.5262 33.1255 66.9342 35.2451 66.9342Z" fill="#C2956D"/>
<path d="M35.2452 71.0323C34.4628 71.1065 33.6761 70.9447 32.9865 70.5677C32.7163 70.3558 32.5047 70.0784 32.3718 69.7618C32.239 69.4452 32.1892 69.0998 32.2273 68.7586C32.251 67.0642 33.0693 66.4342 35.2465 66.4342H35.2783C52.4299 66.4821 69.6683 66.4819 86.5172 66.4336C88.7247 66.4336 89.5085 67.0454 89.5472 68.7716C89.5902 69.1093 89.5439 69.4524 89.4129 69.7666C89.282 70.0809 89.0709 70.3553 88.8009 70.5626C88.0603 70.9638 87.2142 71.1274 86.3775 71.0312C80.1275 70.988 73.8143 70.9949 67.7087 71.0012C63.147 71.0062 58.5853 71.0062 54.0237 71.0012L49.4028 70.9967C44.7537 70.9939 40.0317 70.9985 35.3684 71.0316C35.3268 71.0321 35.2858 71.0324 35.2452 71.0323ZM35.2465 66.9342V67.4342C33.246 67.4342 33.2389 67.938 33.2272 68.7727C33.218 69.4243 33.3872 69.6293 33.5535 69.744C34.1196 69.9988 34.7433 70.0981 35.3606 70.0318C40.0274 69.9987 44.7519 69.9941 49.4036 69.9969L54.025 70.0014C58.5864 70.0064 63.1473 70.0064 67.7078 70.0014C73.8154 69.9948 80.1309 69.9879 86.3859 70.0314C87.0161 70.1028 87.6539 70.0023 88.2317 69.7408C88.3864 69.6336 88.5622 69.4291 88.5476 68.7945C88.5276 67.917 88.517 67.4338 86.5523 67.4338C69.6697 67.4821 52.429 67.4823 35.2769 67.4344L35.2465 66.9342Z" fill="#2B2129"/>
<path d="M35.2391 57.0488H35.2714C52.4049 57.0962 69.6449 57.0961 86.5126 57.0488H86.5467C88.6516 57.0488 89.02 57.6138 89.0459 58.8742C89.0839 59.1284 89.0542 59.3882 88.9599 59.6272C88.8655 59.8663 88.7098 60.0763 88.5084 60.236C87.8514 60.5607 87.1155 60.6915 86.3868 60.6131C80.099 60.5717 73.7058 60.5779 67.524 60.5844C62.971 60.5892 58.418 60.5892 53.8649 60.5844C47.8023 60.5781 41.533 60.5713 35.3683 60.6136C34.6478 60.6933 33.9196 60.5634 33.271 60.2396C33.068 60.078 32.9109 59.866 32.8153 59.6247C32.7198 59.3834 32.6891 59.1213 32.7263 58.8645C32.7444 57.6355 33.126 57.0488 35.2391 57.0488Z" fill="#C2956D"/>
<path d="M35.2316 61.1138C34.4553 61.1829 33.676 61.0224 32.9902 60.6523C32.7171 60.4458 32.5029 60.1713 32.369 59.8562C32.2351 59.5411 32.186 59.1964 32.2269 58.8564C32.2518 57.1743 33.0684 56.5488 35.2396 56.5488H35.2719C52.4088 56.5963 69.6479 56.5961 86.5119 56.5488C88.7265 56.5488 89.5113 57.1546 89.5465 58.8639C89.5885 59.2015 89.5408 59.5442 89.4083 59.8575C89.2757 60.1708 89.063 60.4437 88.7915 60.6486C88.053 61.0389 87.2152 61.2006 86.3846 61.1131C80.0516 61.0713 73.6835 61.078 67.5252 61.0844C62.9718 61.0891 58.4185 61.0891 53.8652 61.0844H53.7195C47.705 61.0781 41.4859 61.0717 35.3725 61.1137C35.3247 61.1138 35.2777 61.1138 35.2316 61.1138ZM35.2396 57.0488V57.5488C33.2464 57.5488 33.239 58.0466 33.2267 58.8713C33.2172 59.5138 33.3961 59.7189 33.553 59.8257C34.12 60.0808 34.7448 60.18 35.363 60.113C41.4824 60.071 47.7036 60.0774 53.7199 60.0837H53.8656C58.4182 60.0885 62.9708 60.0885 67.5236 60.0837C73.6836 60.0773 80.0536 60.0706 86.3903 60.1124C87.0171 60.1775 87.65 60.0775 88.2263 59.8224C88.382 59.7158 88.5592 59.5124 88.5463 58.8836C88.5286 58.0223 88.5188 57.5479 86.547 57.5479C69.6487 57.5956 52.4077 57.5957 35.2703 57.5479L35.2396 57.0488Z" fill="#2B2129"/>
<path d="M88.5134 80.0429C87.9791 80.326 87.3767 80.4552 86.7734 80.4162C86.6513 80.419 86.5228 80.4197 86.388 80.4183C80.1597 80.3753 73.8272 80.3822 67.7035 80.3883C63.1512 80.3929 58.5992 80.3929 54.0475 80.3883C47.9263 80.3817 41.5959 80.3748 35.3705 80.4183C34.648 80.4966 33.9182 80.3672 33.2667 80.0452C33.0647 79.8835 32.9086 79.6718 32.8139 79.4311C32.7191 79.1903 32.6891 78.929 32.7267 78.673C32.7467 77.4419 33.1284 76.854 35.2393 76.854H35.2716C43.8247 76.8777 52.4116 76.8896 60.9716 76.8895C69.5316 76.8894 78.065 76.8774 86.5116 76.8535H86.5448C88.6517 76.8535 89.0205 77.4192 89.0469 78.6814C89.0853 78.9352 89.0562 79.1946 88.9625 79.4336C88.8689 79.6726 88.714 79.8828 88.5134 80.0429Z" fill="#C2956D"/>
<path d="M35.2563 80.9189C34.4706 80.9904 33.6811 80.8302 32.9854 80.4582C32.7134 80.2516 32.5003 79.9772 32.3673 79.6626C32.2343 79.348 32.186 79.004 32.2272 78.6649C32.2546 76.9803 33.0711 76.354 35.2398 76.354C43.8265 76.3778 52.4038 76.3896 60.9719 76.3895C69.5319 76.3895 78.0644 76.3774 86.511 76.3535C88.7263 76.3535 89.5118 76.96 89.5475 78.6709C89.5898 79.0081 89.5427 79.3504 89.4108 79.6636C89.2789 79.9768 89.0669 80.2497 88.7961 80.455C88.1839 80.7982 87.4859 80.9582 86.7853 80.9158C86.6581 80.9187 86.5242 80.9194 86.3836 80.918C80.1885 80.8752 73.8865 80.8819 67.792 80.888C63.152 80.8927 58.5998 80.8929 54.0476 80.888C47.9076 80.8814 41.5881 80.8746 35.3746 80.918C35.3347 80.9187 35.2952 80.9189 35.2563 80.9189ZM35.2707 77.354C33.2487 77.354 33.2407 77.8535 33.2271 78.6811C33.2171 79.322 33.3939 79.5262 33.5494 79.6324C34.1194 79.8862 34.7463 79.9848 35.3667 79.9184C41.5852 79.8748 47.9067 79.8816 54.0196 79.8884C58.6002 79.8934 63.1517 79.8932 67.7036 79.8884C73.8874 79.8819 80.1914 79.8752 86.392 79.9184C86.5228 79.9196 86.6458 79.919 86.7626 79.9164C87.2685 79.9499 87.7745 79.8514 88.2309 79.6304C88.3854 79.5245 88.5609 79.3222 88.5478 78.6922C88.5297 77.8292 88.5198 77.3538 86.5456 77.3538C78.0415 77.3778 69.4917 77.3898 60.8964 77.3898C52.3605 77.3896 43.7995 77.3777 35.2707 77.354Z" fill="#2B2129"/>
<path d="M88.5134 40.4588C87.9791 40.7419 87.3768 40.8712 86.7734 40.8322C86.6513 40.835 86.5228 40.8357 86.388 40.8343C80.1597 40.7912 73.8272 40.7981 67.7035 40.8043C63.1512 40.8089 58.5992 40.8089 54.0475 40.8043C47.9263 40.7977 41.5959 40.7908 35.3705 40.8343C34.648 40.9125 33.9182 40.7831 33.2667 40.4612C33.0647 40.2995 32.9086 40.0878 32.8139 39.847C32.7191 39.6063 32.6891 39.3449 32.7267 39.0889C32.7467 37.8578 33.1284 37.2699 35.2393 37.2699H35.2716C43.8247 37.2937 52.4116 37.3055 60.9716 37.3054C69.5316 37.3053 78.065 37.2934 86.5116 37.2695H86.5448C88.6517 37.2695 89.0205 37.8352 89.0469 39.0973C89.0853 39.3511 89.0562 39.6106 88.9625 39.8496C88.8689 40.0885 88.714 40.2987 88.5134 40.4588Z" fill="#C2956D"/>
<path d="M35.2564 41.3348C34.4707 41.4063 33.6812 41.2462 32.9854 40.8741C32.7134 40.6675 32.5003 40.3932 32.3673 40.0785C32.2342 39.7639 32.186 39.4199 32.2272 39.0808C32.2546 37.3962 33.0711 36.7699 35.2398 36.7699C43.8265 36.7937 52.4038 36.8056 60.9719 36.8054C69.5319 36.8054 78.0644 36.7934 86.511 36.7695C88.7263 36.7695 89.5118 37.3759 89.5475 39.0869C89.5898 39.4241 89.5427 39.7664 89.4108 40.0796C89.2789 40.3927 89.0669 40.6657 88.7961 40.8709C88.1839 41.2142 87.4859 41.3741 86.7853 41.3316C86.6581 41.3346 86.5242 41.3353 86.3836 41.3338C80.1885 41.2911 73.8865 41.2977 67.792 41.3038C63.152 41.3085 58.5998 41.3087 54.0476 41.3038C47.9076 41.2972 41.5881 41.2904 35.3746 41.3338C35.3348 41.3346 35.2952 41.3348 35.2564 41.3348ZM35.2707 37.7699C33.2487 37.7699 33.2407 38.2694 33.2271 39.097C33.2171 39.738 33.3939 39.9421 33.5494 40.0483C34.1194 40.302 34.7463 40.4007 35.3667 40.3343C41.5852 40.2907 47.9067 40.2975 54.0196 40.3043C58.6002 40.3093 63.1517 40.3091 67.7036 40.3043C73.8874 40.2978 80.1914 40.2912 86.392 40.3343C86.5228 40.3356 86.6458 40.3349 86.7626 40.3323C87.2685 40.3658 87.7744 40.2673 88.2308 40.0463C88.3853 39.9405 88.5608 39.7381 88.5478 39.1081C88.5297 38.2451 88.5198 37.7698 86.5456 37.7698C78.0383 37.7937 69.485 37.8057 60.8856 37.8057C52.3532 37.8054 43.7963 37.7936 35.2707 37.7699Z" fill="#2B2129"/>
<path d="M88.5134 30.5721C87.9791 30.8553 87.3768 30.9846 86.7734 30.9455C86.6513 30.9483 86.5228 30.949 86.388 30.9476C80.1597 30.9046 73.8272 30.9115 67.7035 30.9176C63.1512 30.9222 58.5992 30.9222 54.0475 30.9176C47.9263 30.911 41.5959 30.9041 35.3705 30.9476C34.648 31.0259 33.9182 30.8965 33.2667 30.5745C33.0647 30.4128 32.9086 30.2011 32.8139 29.9604C32.7191 29.7196 32.6891 29.4583 32.7267 29.2023C32.7467 27.9712 33.1284 27.3833 35.2393 27.3833H35.2716C43.8247 27.407 52.4116 27.4189 60.9716 27.4188C69.5316 27.4187 78.065 27.4067 86.5116 27.3828H86.5448C88.6517 27.3828 89.0205 27.9485 89.0469 29.2106C89.0853 29.4644 89.0562 29.7238 88.9625 29.9628C88.8689 30.2018 88.714 30.412 88.5134 30.5721Z" fill="#C2956D"/>
<path d="M35.2564 31.4482C34.4707 31.5197 33.6812 31.3595 32.9854 30.9875C32.7134 30.7808 32.5003 30.5065 32.3673 30.1919C32.2343 29.8772 32.186 29.5332 32.2272 29.1941C32.2546 27.5096 33.0711 26.8833 35.2398 26.8833C43.8265 26.907 52.4038 26.9189 60.9719 26.9188C69.5319 26.9188 78.0644 26.9067 86.511 26.8828C88.7263 26.8828 89.5118 27.4892 89.5475 29.2002C89.5898 29.5374 89.5427 29.8797 89.4108 30.1929C89.2789 30.5061 89.0669 30.779 88.7961 30.9843C88.1839 31.3276 87.4859 31.4875 86.7853 31.4451C86.6581 31.448 86.5242 31.4487 86.3836 31.4473C80.1885 31.4045 73.8865 31.4112 67.792 31.4173C63.152 31.422 58.5998 31.4221 54.0476 31.4173C47.9076 31.4107 41.5881 31.4039 35.3746 31.4473C35.3348 31.448 35.2952 31.4482 35.2564 31.4482ZM35.2707 27.8833C33.2487 27.8833 33.2407 28.3833 33.2271 29.2104C33.2171 29.8513 33.3939 30.0555 33.5494 30.1617C34.1194 30.4154 34.7463 30.514 35.3667 30.4477C41.5852 30.4041 47.9067 30.4109 54.0196 30.4177C58.6002 30.4226 63.1517 30.4225 67.7036 30.4177C73.8874 30.4112 80.1914 30.4045 86.392 30.4477C86.5228 30.4489 86.6458 30.4483 86.7626 30.4457C87.2685 30.4792 87.7745 30.3807 88.2309 30.1597C88.3854 30.0538 88.5609 29.8515 88.5479 29.2214C88.5298 28.3585 88.5199 27.8831 86.5457 27.8831C78.0416 27.9071 69.4918 27.9191 60.8965 27.9191C52.3605 27.9188 43.7995 27.907 35.2707 27.8833Z" fill="#2B2129"/>
<path d="M88.5134 20.6854C87.9791 20.9685 87.3768 21.0978 86.7734 21.0588C86.6513 21.0615 86.5228 21.0622 86.388 21.0609C80.1597 21.0179 73.8272 21.0248 67.7035 21.0309C63.1512 21.0356 58.5992 21.0356 54.0475 21.0309C47.9263 21.0243 41.5959 21.0174 35.3705 21.0609C34.648 21.1391 33.9182 21.0097 33.2667 20.6878C33.0647 20.5261 32.9086 20.3143 32.8139 20.0736C32.7191 19.8328 32.6891 19.5715 32.7267 19.3155C32.7467 18.0844 33.1284 17.4965 35.2393 17.4965H35.2716C43.8247 17.5203 52.4116 17.5321 60.9716 17.5321C69.5316 17.5321 78.065 17.52 86.5116 17.4961H86.5448C88.6517 17.4961 89.0205 18.0618 89.0469 19.3239C89.0853 19.5777 89.0562 19.8371 88.9625 20.0761C88.8689 20.3151 88.714 20.5252 88.5134 20.6854Z" fill="#C2956D"/>
<path d="M35.2565 21.5614C34.4707 21.6329 33.6812 21.4727 32.9854 21.1007C32.7134 20.894 32.5003 20.6197 32.3673 20.3051C32.2342 19.9905 32.186 19.6465 32.2272 19.3074C32.2546 17.6228 33.0711 16.9965 35.2398 16.9965C43.8265 17.0203 52.4038 17.0322 60.9719 17.0321C69.5319 17.0321 78.0644 17.02 86.511 16.9961C88.7263 16.9961 89.5118 17.6025 89.5475 19.3135C89.5898 19.6507 89.5427 19.993 89.4108 20.3062C89.2789 20.6194 89.0669 20.8923 88.7961 21.0976C88.1839 21.4408 87.4859 21.6008 86.7853 21.5584C86.6581 21.5612 86.5242 21.5619 86.3836 21.5606C80.1847 21.5178 73.8789 21.5244 67.7807 21.5306C63.152 21.5354 58.5998 21.5355 54.0476 21.5306C47.9076 21.524 41.5881 21.5172 35.3746 21.5606C35.3348 21.5612 35.2953 21.5614 35.2565 21.5614ZM35.2707 17.9965C33.2487 17.9965 33.2407 18.4965 33.2271 19.3236C33.2171 19.9646 33.3939 20.1687 33.5494 20.275C34.1194 20.5286 34.7463 20.6273 35.3667 20.5609C41.5852 20.5173 47.9067 20.5241 54.0196 20.5309C58.6002 20.5359 63.1517 20.5358 67.7036 20.5309C73.8798 20.5244 80.1876 20.5178 86.392 20.5609C86.5228 20.5622 86.6458 20.5615 86.7626 20.5589C87.2685 20.5924 87.7745 20.4939 88.2309 20.273C88.3854 20.1671 88.5609 19.9648 88.5479 19.3347C88.5298 18.4717 88.5199 17.9964 86.5457 17.9964C78.0416 18.0204 69.4918 18.0324 60.8965 18.0324C52.3605 18.0321 43.7995 18.0202 35.2707 17.9965Z" fill="#2B2129"/>
</svg>
