<svg width="64" height="64" viewBox="0 0 64 64" fill="none" xmlns="http://www.w3.org/2000/svg">
<circle cx="32" cy="32" r="32" fill="#8CE346"/>
<path d="M47.5388 36.4303C47.2269 35.5324 46.7497 34.6902 46.1087 33.9035C45.4665 33.1177 44.6691 32.4198 43.7157 31.81C42.7618 31.2008 41.6436 30.7197 40.3604 30.3662C39.8461 30.2384 38.9415 30.0375 37.75 29.7645C36.8984 29.5701 36.1 29.3708 35.2 29.1676V19.2561C36.1 19.4807 36.7252 19.8375 37.3926 20.2339C38.8205 21.0814 39.7158 22.5312 39.9781 24.5H46.8955C46.8301 22.8125 46.4305 21.4287 45.6959 20.1856C44.8889 18.8222 43.7982 17.6521 42.4229 16.721C41.0479 15.7908 39.4004 15.0813 37.5852 14.6158C36.7968 14.414 36.1001 14.2442 35.2001 14.1299V11H28.8V14.1094C28.1 14.2073 27.2852 14.3386 26.5574 14.5078C24.8332 14.9094 23.3186 15.5267 21.9623 16.3607C20.6052 17.1956 19.5271 18.2462 18.7019 19.5132C17.8768 20.781 17.4707 22.2807 17.4707 24.0132C17.4707 24.9118 17.6114 25.7938 17.8864 26.6603C18.1616 27.5266 18.6306 28.3447 19.2906 29.1147C19.9509 29.8848 20.8401 30.5827 21.9593 31.2084C23.0776 31.8339 24.4298 32.3394 26.1169 32.7244C27.0456 32.9442 27.9999 33.1495 28.7999 33.3409V44.5521C27.6999 44.2784 26.611 43.8584 25.7321 43.2884C24.8151 42.6953 24.1255 41.9803 23.6123 41.0493C23.1344 40.1841 22.905 39.125 22.8716 38H16C16.0695 39.9688 16.525 41.7026 17.3672 43.191C18.2471 44.7477 19.4205 45.9998 20.8876 46.9937C22.3538 47.9887 24.0269 48.7146 26.0074 49.196C26.8959 49.412 27.9 49.5672 28.8 49.6863V53H35.2001V49.7619C36.2001 49.6617 37.0958 49.5097 38.0528 49.3045C39.9229 48.9039 41.6173 48.2698 43.0844 47.4036C44.5506 46.5373 45.7465 45.4228 46.6455 44.0585C47.5435 42.6953 48 41.0505 48 39.1255C48.0001 38.2275 47.8499 37.3288 47.5388 36.4303V36.4303ZM28.8 27.6593C27.6 27.3084 26.4088 26.8073 25.5949 26.1548C24.7328 25.4653 24.3276 24.511 24.3276 23.2912C24.3276 22.4248 24.569 21.7031 25.028 21.1254C25.486 20.5478 26.0192 20.0906 26.716 19.7537C27.334 19.4548 28.1 19.232 28.8 19.0845V27.6593V27.6593ZM40.6903 41.7004C40.3964 42.326 39.9204 42.8794 39.26 43.3608C38.5998 43.842 37.6856 44.2353 36.6223 44.5399C36.1723 44.6691 35.8 44.769 35.2 44.8433V34.8017C36.2 35.0477 37.018 35.3016 37.8326 35.564C38.6388 35.8212 39.4074 36.2618 40.0863 36.8874C40.7648 37.5132 41.1172 38.4839 41.1172 39.7992C41.1173 40.4414 40.9835 41.0747 40.6903 41.7004V41.7004Z" fill="white"/>
</svg>
