<?xml version="1.0" encoding="utf-8"?>
<!-- Generator: Adobe Illustrator 26.2.1, SVG Export Plug-In . SVG Version: 6.00 Build 0)  -->
<svg version="1.1" id="图层_1" xmlns="http://www.w3.org/2000/svg" xmlns:xlink="http://www.w3.org/1999/xlink" x="0px" y="0px"
	 viewBox="0 0 64 64" style="enable-background:new 0 0 64 64;" xml:space="preserve">
<style type="text/css">
	.st0{fill:#8CE346;}
	.st1{fill:#FFFFFF;}
</style>
<rect x="0.1" y="0" class="st0" width="64" height="64"/>
<path class="st1" d="M47.5,36.4c-0.3-0.9-0.8-1.7-1.4-2.5c-0.6-0.8-1.4-1.5-2.4-2.1c-1-0.6-2.1-1.1-3.4-1.4
	c-0.5-0.1-1.4-0.3-2.6-0.6c-0.9-0.2-1.7-0.4-2.5-0.6v-9.9c0.9,0.2,1.5,0.6,2.2,1c1.4,0.8,2.3,2.3,2.6,4.3h6.9
	c-0.1-1.7-0.5-3.1-1.2-4.3c-0.8-1.4-1.9-2.5-3.3-3.5c-1.4-0.9-3-1.6-4.8-2.1c-0.8-0.2-1.5-0.4-2.4-0.5V11h-6.4v3.1
	c-0.7,0.1-1.5,0.2-2.2,0.4c-1.7,0.4-3.2,1-4.6,1.9c-1.4,0.8-2.4,1.9-3.3,3.2c-0.8,1.3-1.2,2.8-1.2,4.5c0,0.9,0.1,1.8,0.4,2.6
	c0.3,0.9,0.7,1.7,1.4,2.5c0.7,0.8,1.5,1.5,2.7,2.1c1.1,0.6,2.5,1.1,4.2,1.5c0.9,0.2,1.9,0.4,2.7,0.6v11.2c-1.1-0.3-2.2-0.7-3.1-1.3
	c-0.9-0.6-1.6-1.3-2.1-2.2c-0.5-0.9-0.7-1.9-0.7-3H16c0.1,2,0.5,3.7,1.4,5.2c0.9,1.6,2.1,2.8,3.5,3.8c1.5,1,3.1,1.7,5.1,2.2
	c0.9,0.2,1.9,0.4,2.8,0.5V53h6.4v-3.2c1-0.1,1.9-0.3,2.9-0.5c1.9-0.4,3.6-1,5-1.9c1.5-0.9,2.7-2,3.6-3.3c0.9-1.4,1.4-3,1.4-4.9
	C48,38.2,47.8,37.3,47.5,36.4L47.5,36.4z M28.8,27.7c-1.2-0.4-2.4-0.9-3.2-1.5c-0.9-0.7-1.3-1.6-1.3-2.9c0-0.9,0.2-1.6,0.7-2.2
	c0.5-0.6,1-1,1.7-1.4c0.6-0.3,1.4-0.5,2.1-0.7V27.7L28.8,27.7z M40.7,41.7c-0.3,0.6-0.8,1.2-1.4,1.7c-0.7,0.5-1.6,0.9-2.6,1.2
	c-0.5,0.1-0.8,0.2-1.4,0.3v-10c1,0.2,1.8,0.5,2.6,0.8c0.8,0.3,1.6,0.7,2.3,1.3c0.7,0.6,1,1.6,1,2.9C41.1,40.4,41,41.1,40.7,41.7
	L40.7,41.7z"/>
</svg>
