<svg width="64" height="64" viewBox="0 0 64 64" fill="none" xmlns="http://www.w3.org/2000/svg">
<g clip-path="url(#clip0_9634_6157)">
<path d="M64 0H0V64H64V0Z" fill="#2775CA"/>
<path d="M40.8002 37.0666C40.8002 32.4 38.0002 30.8 32.4002 30.1335C28.4002 29.6 27.6002 28.5335 27.6002 26.6666C27.6002 24.7997 28.9336 23.6 31.6002 23.6C34.0002 23.6 35.3336 24.4 36.0002 26.4C36.1336 26.8 36.5336 27.0666 36.9336 27.0666H39.0667C39.6002 27.0666 40.0002 26.6666 40.0002 26.1335V26C39.4667 23.0666 37.0667 20.8 34.0002 20.5335V17.3335C34.0002 16.8 33.6002 16.4 32.9336 16.2666H30.9336C30.4002 16.2666 30.0002 16.6666 29.8667 17.3335V20.4C25.8667 20.9335 23.3336 23.6 23.3336 26.9335C23.3336 31.3335 26.0002 33.0666 31.6002 33.7335C35.3336 34.4 36.5336 35.2 36.5336 37.3335C36.5336 39.4669 34.6667 40.9335 32.1336 40.9335C28.6667 40.9335 27.4667 39.4666 27.0667 37.4666C26.9336 36.9335 26.5336 36.6666 26.1336 36.6666H23.8667C23.3336 36.6666 22.9336 37.0666 22.9336 37.6V37.7335C23.4667 41.0666 25.6002 43.4666 30.0002 44.1335V47.3335C30.0002 47.8666 30.4002 48.2666 31.0667 48.4H33.0667C33.6002 48.4 34.0002 48 34.1336 47.3335V44.1335C38.1336 43.4666 40.8002 40.6666 40.8002 37.0666Z" fill="white"/>
<path d="M25.2002 51.0666C14.8002 47.3335 9.46672 35.7335 13.3336 25.4666C15.3336 19.8666 19.7336 15.6001 25.2002 13.6001C25.7336 13.3335 26.0002 12.9335 26.0002 12.2666V10.4001C26.0002 9.86662 25.7336 9.46662 25.2002 9.3335C25.0667 9.3335 24.8002 9.3335 24.6667 9.46662C12.0002 13.4666 5.06672 26.9335 9.06672 39.6001C11.4667 47.0666 17.2002 52.8001 24.6667 55.2001C25.2002 55.4666 25.7336 55.2001 25.8667 54.6666C26.0002 54.5335 26.0002 54.4001 26.0002 54.1335V52.2666C26.0002 51.8666 25.6002 51.3335 25.2002 51.0666ZM39.3336 9.46662C38.8002 9.20006 38.2667 9.46662 38.1336 10.0001C38.0002 10.1335 38.0002 10.2666 38.0002 10.5335V12.4001C38.0002 12.9335 38.4002 13.4666 38.8002 13.7335C49.2002 17.4666 54.5336 29.0666 50.6667 39.3335C48.6667 44.9335 44.2667 49.2001 38.8002 51.2001C38.2667 51.4666 38.0002 51.8666 38.0002 52.5335V54.4001C38.0002 54.9335 38.2667 55.3335 38.8002 55.4666C38.9336 55.4666 39.2002 55.4666 39.3336 55.3335C52.0002 51.3335 58.9336 37.8666 54.9336 25.2001C52.5336 17.6001 46.6667 11.8666 39.3336 9.46662Z" fill="white"/>
</g>
<defs>
<clipPath id="clip0_9634_6157">
<rect width="64" height="64" fill="white"/>
</clipPath>
</defs>
</svg>
