<?xml version="1.0" encoding="utf-8"?>
<!-- Generator: Adobe Illustrator 26.2.1, SVG Export Plug-In . SVG Version: 6.00 Build 0)  -->
<svg version="1.1" xmlns="http://www.w3.org/2000/svg" xmlns:xlink="http://www.w3.org/1999/xlink" x="0px" y="0px"
	 viewBox="0 0 1503 1504" style="enable-background:new 0 0 1503 1504;" xml:space="preserve">
<style type="text/css">
	.st0{fill:#FFFFFF;}
	.st1{fill-rule:evenodd;clip-rule:evenodd;fill:#E84142;}
</style>
<rect x="287" y="258" class="st0" width="928" height="844"/>
<path class="st1" d="M1502.5,633.9V141.3V71.1V1H348.9H242.5H0.5v632.9v183.8V1503h124.1h124.1h1006.1h73.9H1503V633.9H1502.5z
	 M856.9,965.5l0.4-0.6l104.2-179c15.3-26.4,23.1-39.5,32.7-44.5c10.5-5.4,22.9-5.4,33.4,0c9.5,4.9,17,17.4,31.7,42.3l1.2,2
	l104.6,179c0.5,0.9,1,1.7,1.5,2.6c14.5,25,21.9,37.8,21.4,48.3c-0.6,11.8-6.8,22.7-16.8,29.2c-9.2,6.1-24.7,6.1-55.5,6.1H906.8
	c-30.8,0-46.3,0-55.3-5.9c-10-6.5-16-17.3-16.8-29.1C834.1,1005,841.7,991.8,856.9,965.5z M687.6,964.7l-0.5,0.9
	c-16.6,29.1-25.1,43.9-36.8,55c-12.7,12.2-28,21-44.8,26c-15.3,4.2-32.5,4.2-66.8,4.2H392.9c-30.6,0-45.8,0-55-5.9
	c-10-6.5-16.1-17.2-16.8-29c-0.6-10.9,7-24.2,22.1-50.7l359.9-634.3c15.3-26.9,23.1-40.4,32.8-45.4c10.5-5.4,23.1-5.4,33.6,0
	c9.8,5,17.5,18.4,32.8,45.4l74,129.1l0.4,0.7c16.5,28.9,24.9,43.6,28.6,58.9c4.1,16.8,4.1,34.5,0,51.3c-3.7,15.5-12,30.3-28.8,59.6
	L687.6,964.7z"/>
</svg>
