<svg width="64" height="64" viewBox="0 0 64 64" fill="none" xmlns="http://www.w3.org/2000/svg">
<g clip-path="url(#clip0_5405_4542)">
<path d="M64 0H0V64H64V0Z" fill="#F3BA2F"/>
<path d="M20.3341 16.7395L32 10L43.6659 16.7395L39.3769 19.2293L32 14.9795L24.623 19.2293L20.3341 16.7395ZM43.6659 25.239L39.3769 22.7493L32 26.999L24.623 22.7493L20.3341 25.239V30.2186L27.7111 34.4682V42.9677L32 45.4576L36.289 42.9677V34.4682L43.6659 30.2186V25.239ZM43.6659 38.7181V33.7386L39.3769 36.2282V41.2077L43.6659 38.7181ZM46.711 40.4781L39.3341 44.7277V49.7073L51 42.9677V29.4887L46.711 31.9786V40.4781ZM42.4222 20.9893L46.711 23.479V28.4586L51 25.9688V20.9893L46.711 18.4995L42.4222 20.9893ZM27.7111 46.5308V51.5103L32 54L36.289 51.5103V46.5308L32 49.0205L27.7111 46.5308ZM20.3341 38.7181L24.623 41.2077V36.2282L20.3341 33.7386V38.7181ZM27.7111 20.9893L32 23.479L36.289 20.9893L32 18.4995L27.7111 20.9893ZM17.2889 23.479L21.5779 20.9893L17.2889 18.4995L13 20.9893V25.9688L17.2889 28.4586V23.479ZM17.2889 31.9786L13 29.4887V42.9677L24.6659 49.7073V44.7277L17.2889 40.4781V31.9786Z" fill="white"/>
</g>
<defs>
<clipPath id="clip0_5405_4542">
<rect width="64" height="64" fill="white"/>
</clipPath>
</defs>
</svg>
